<svg xmlns="http://www.w3.org/2000/svg" viewBox="0 0 1924.6425000000002 674" width="1924.6425000000002" height="674" style="--bg:#0d1117;--fg:#e6edf3;--line:#3d444d;--accent:#4493f8;--muted:#9198a1;background:var(--bg)">
<style>
  @import url('https://fonts.googleapis.com/css2?family=Inter:wght@400;500;600;700&amp;display=swap');
  text { font-family: 'Inter', system-ui, sans-serif; }
  svg {
    /* Derived from --bg and --fg (overridable via --line, --accent, etc.) */
    --_text:          var(--fg);
    --_text-sec:      var(--muted, color-mix(in srgb, var(--fg) 60%, var(--bg)));
    --_text-muted:    var(--muted, color-mix(in srgb, var(--fg) 40%, var(--bg)));
    --_text-faint:    color-mix(in srgb, var(--fg) 25%, var(--bg));
    --_line:          var(--line, color-mix(in srgb, var(--fg) 30%, var(--bg)));
    --_arrow:         var(--accent, color-mix(in srgb, var(--fg) 50%, var(--bg)));
    --_node-fill:     var(--surface, color-mix(in srgb, var(--fg) 3%, var(--bg)));
    --_node-stroke:   var(--border, color-mix(in srgb, var(--fg) 20%, var(--bg)));
    --_group-fill:    var(--bg);
    --_group-hdr:     color-mix(in srgb, var(--fg) 5%, var(--bg));
    --_inner-stroke:  color-mix(in srgb, var(--fg) 12%, var(--bg));
    --_key-badge:     color-mix(in srgb, var(--fg) 10%, var(--bg));
  }
</style>
<defs>
  <marker id="arrowhead" markerWidth="8" markerHeight="4.8" refX="8" refY="2.4" orient="auto">
    <polygon points="0 0, 8 2.4, 0 4.8" fill="var(--_arrow)" />
  </marker>
  <marker id="arrowhead-start" markerWidth="8" markerHeight="4.8" refX="0" refY="2.4" orient="auto-start-reverse">
    <polygon points="8 0, 0 2.4, 8 4.8" fill="var(--_arrow)" />
  </marker>
</defs>
<polyline points="648.2500000000002,76 648.2500000000002,104.5 220.59500000000003,104.5 220.59500000000003,151 117.57249999999988,151" fill="none" stroke="var(--_line)" stroke-width="0.75" marker-end="url(#arrowhead)" />
<polyline points="648.2500000000002,76 648.2500000000002,104.5 586.335,104.5 586.335,337 650.5875000000002,337" fill="none" stroke="var(--_line)" stroke-width="0.75" marker-end="url(#arrowhead)" />
<polyline points="648.2500000000002,76 648.2500000000002,104.5 1252.335,104.5 1252.335,226" fill="none" stroke="var(--_line)" stroke-width="0.75" marker-end="url(#arrowhead)" />
<polyline points="287.2974999999999,169 287.2974999999999,197.5 810.2350000000001,197.5 810.2350000000001,226" fill="none" stroke="var(--_line)" stroke-width="0.75" marker-end="url(#arrowhead)" />
<polyline points="810.2350000000001,262 810.2350000000001,337 650.5875000000002,337" fill="none" stroke="var(--_line)" stroke-width="0.75" marker-end="url(#arrowhead)" />
<polyline points="1252.335,262 1252.335,290.5 1204.2275,290.5 1204.2275,337 1061.5375000000004,337" fill="none" stroke="var(--_line)" stroke-width="0.75" marker-end="url(#arrowhead)" />
<polyline points="1252.335,262 1252.335,290.5 1487.8975,290.5 1487.8975,319" fill="none" stroke="var(--_line)" stroke-width="0.75" marker-end="url(#arrowhead)" />
<polyline points="856.0625000000002,355 856.0625000000002,383.5 919.9050000000001,383.5 919.9050000000001,430 1092.8274999999999,430" fill="none" stroke="var(--_line)" stroke-width="0.75" marker-end="url(#arrowhead)" />
<polyline points="1316.1775,448 1316.1775,523 1413.0974999999999,523" fill="none" stroke="var(--_line)" stroke-width="0.75" marker-end="url(#arrowhead)" />
<polyline points="238.32500000000005,76 238.32500000000005,104.5 334.1875,104.5 334.1875,151 457.0224999999999,151" fill="none" stroke="var(--_line)" stroke-width="0.75" marker-end="url(#arrowhead)" />
<polyline points="238.32500000000005,76 238.32500000000005,104.5 1776.5625,104.5 1776.5625,523 1773.9975,523" fill="none" stroke="var(--_line)" stroke-width="0.75" marker-end="url(#arrowhead)" />
<polyline points="238.32500000000005,76 238.32500000000005,104.5 93.78500000000008,104.5 93.78500000000008,616 560.7349999999999,616" fill="none" stroke="var(--_line)" stroke-width="0.75" marker-end="url(#arrowhead)" />
<polyline points="1487.8975,355 1487.8975,383.5 1536.575,383.5 1536.575,430 1539.5275000000001,430" fill="none" stroke="var(--_line)" stroke-width="0.75" marker-end="url(#arrowhead)" />
<polyline points="1487.8975,355 1487.8975,383.5 1840.6025,383.5 1840.6025,523 1773.9975,523" fill="none" stroke="var(--_line)" stroke-width="0.75" marker-end="url(#arrowhead)" />
<polyline points="1593.5475,541 1593.5475,616 921.635,616" fill="none" stroke="var(--_line)" stroke-width="0.75" marker-end="url(#arrowhead)" />
<polyline points="287.2974999999999,169 287.2974999999999,523 133.9974999999999,523" fill="none" stroke="var(--_line)" stroke-width="0.75" marker-end="url(#arrowhead)" />
<polyline points="856.0625000000002,355 856.0625000000002,383.5 396.47500000000014,383.5 396.47500000000014,523 480.5974999999999,523" fill="none" stroke="var(--_line)" stroke-width="0.75" marker-end="url(#arrowhead)" />
<polyline points="1252.335,262 1252.335,290.5 416.47500000000014,290.5 416.47500000000014,523 480.5974999999999,523" fill="none" stroke="var(--_line)" stroke-width="0.75" marker-end="url(#arrowhead)" />
<polyline points="1316.1775,448 1316.1775,476.5 436.47500000000014,476.5 436.47500000000014,523 480.5974999999999,523" fill="none" stroke="var(--_line)" stroke-width="0.75" marker-end="url(#arrowhead)" />
<polyline points="1487.8975,355 1487.8975,383.5 456.47500000000014,383.5 456.47500000000014,523 480.5974999999999,523" fill="none" stroke="var(--_line)" stroke-width="0.75" marker-end="url(#arrowhead)" />
<rect x="178.27500000000003" y="91" width="84.64" height="27" rx="4" ry="4" fill="var(--bg)" stroke="var(--_inner-stroke)" stroke-width="0.5" />
<text x="220.59500000000003" y="104.5" text-anchor="middle" dy="0.35em" font-size="11" font-weight="400" fill="var(--_text-muted)">&quot;foundation&quot;</text>
<rect x="544.015" y="184" width="84.64" height="27" rx="4" ry="4" fill="var(--bg)" stroke="var(--_inner-stroke)" stroke-width="0.5" />
<text x="586.335" y="197.5" text-anchor="middle" dy="0.35em" font-size="11" font-weight="400" fill="var(--_text-muted)">&quot;foundation&quot;</text>
<rect x="1210.015" y="137.5" width="84.64" height="27" rx="4" ry="4" fill="var(--bg)" stroke="var(--_inner-stroke)" stroke-width="0.5" />
<text x="1252.335" y="151" text-anchor="middle" dy="0.35em" font-size="11" font-weight="400" fill="var(--_text-muted)">&quot;foundation&quot;</text>
<rect x="759.3350000000002" y="184" width="101.8" height="27" rx="4" ry="4" fill="var(--bg)" stroke="var(--_inner-stroke)" stroke-width="0.5" />
<text x="810.2350000000001" y="197.5" text-anchor="middle" dy="0.35em" font-size="11" font-weight="400" fill="var(--_text-muted)">&quot;streaming bug&quot;</text>
<rect x="762.1950000000002" y="277" width="96.08" height="27" rx="4" ry="4" fill="var(--bg)" stroke="var(--_inner-stroke)" stroke-width="0.5" />
<text x="810.2350000000001" y="290.5" text-anchor="middle" dy="0.35em" font-size="11" font-weight="400" fill="var(--_text-muted)">&quot;bug found by&quot;</text>
<rect x="1141.8875" y="277" width="124.68" height="27" rx="4" ry="4" fill="var(--bg)" stroke="var(--_inner-stroke)" stroke-width="0.5" />
<text x="1204.2275" y="290.5" text-anchor="middle" dy="0.35em" font-size="11" font-weight="400" fill="var(--_text-muted)">&quot;agent definitions&quot;</text>
<rect x="1436.9975" y="277" width="101.8" height="27" rx="4" ry="4" fill="var(--bg)" stroke="var(--_inner-stroke)" stroke-width="0.5" />
<text x="1487.8975" y="290.5" text-anchor="middle" dy="0.35em" font-size="11" font-weight="400" fill="var(--_text-muted)">&quot;prompt layers&quot;</text>
<rect x="883.3050000000001" y="370" width="73.2" height="27" rx="4" ry="4" fill="var(--bg)" stroke="var(--_inner-stroke)" stroke-width="0.5" />
<text x="919.9050000000001" y="383.5" text-anchor="middle" dy="0.35em" font-size="11" font-weight="400" fill="var(--_text-muted)">&quot;QA gates&quot;</text>
<rect x="1268.1375" y="463" width="96.08" height="27" rx="4" ry="4" fill="var(--bg)" stroke="var(--_inner-stroke)" stroke-width="0.5" />
<text x="1316.1775" y="476.5" text-anchor="middle" dy="0.35em" font-size="11" font-weight="400" fill="var(--_text-muted)">&quot;build target&quot;</text>
<rect x="294.7275" y="91" width="78.92" height="27" rx="4" ry="4" fill="var(--bg)" stroke="var(--_inner-stroke)" stroke-width="0.5" />
<text x="334.1875" y="104.5" text-anchor="middle" dy="0.35em" font-size="11" font-weight="400" fill="var(--_text-muted)">&quot;validates&quot;</text>
<rect x="1737.1025" y="277" width="78.92" height="27" rx="4" ry="4" fill="var(--bg)" stroke="var(--_inner-stroke)" stroke-width="0.5" />
<text x="1776.5625" y="290.5" text-anchor="middle" dy="0.35em" font-size="11" font-weight="400" fill="var(--_text-muted)">&quot;validates&quot;</text>
<rect x="54.32500000000008" y="323.5" width="78.92" height="27" rx="4" ry="4" fill="var(--bg)" stroke="var(--_inner-stroke)" stroke-width="0.5" />
<text x="93.78500000000008" y="337" text-anchor="middle" dy="0.35em" font-size="11" font-weight="400" fill="var(--_text-muted)">&quot;validates&quot;</text>
<rect x="1488.535" y="370" width="96.08" height="27" rx="4" ry="4" fill="var(--bg)" stroke="var(--_inner-stroke)" stroke-width="0.5" />
<text x="1536.575" y="383.5" text-anchor="middle" dy="0.35em" font-size="11" font-weight="400" fill="var(--_text-muted)">&quot;orchestrates&quot;</text>
<rect x="1792.5625" y="416.5" width="96.08" height="27" rx="4" ry="4" fill="var(--bg)" stroke="var(--_inner-stroke)" stroke-width="0.5" />
<text x="1840.6025" y="430" text-anchor="middle" dy="0.35em" font-size="11" font-weight="400" fill="var(--_text-muted)">&quot;orchestrates&quot;</text>
<rect x="1536.9274999999998" y="556" width="113.24000000000001" height="27" rx="4" ry="4" fill="var(--bg)" stroke="var(--_inner-stroke)" stroke-width="0.5" />
<text x="1593.5475" y="569.5" text-anchor="middle" dy="0.35em" font-size="11" font-weight="400" fill="var(--_text-muted)">&quot;design pipeline&quot;</text>
<rect x="460.6500000000002" y="40" width="375.20000000000005" height="36" rx="0" ry="0" fill="#1a1a2e" stroke="#e94560" stroke-width="2px" />
<rect x="117.57249999999988" y="133" width="339.45000000000005" height="36" rx="0" ry="0" fill="#0f3460" stroke="#533483" stroke-width="2px" />
<rect x="608.3350000000002" y="226" width="403.8" height="36" rx="0" ry="0" fill="#0f3460" stroke="#533483" stroke-width="2px" />
<rect x="650.5875000000002" y="319" width="410.95000000000005" height="36" rx="0" ry="0" fill="#16213e" stroke="#0f3460" stroke-width="2px" />
<rect x="1036.135" y="226" width="432.40000000000003" height="36" rx="0" ry="0" fill="#16213e" stroke="#0f3460" stroke-width="2px" />
<rect x="1092.8274999999999" y="412" width="446.70000000000005" height="36" rx="0" ry="0" fill="#0f3460" stroke="#533483" stroke-width="2px" />
<rect x="40.00000000000003" y="40" width="396.65000000000003" height="36" rx="0" ry="0" fill="#16213e" stroke="#0f3460" stroke-width="2px" />
<rect x="1275.2725" y="319" width="425.25000000000006" height="36" rx="0" ry="0" fill="#0f3460" stroke="#533483" stroke-width="2px" />
<rect x="1413.0974999999999" y="505" width="360.90000000000003" height="36" rx="0" ry="0" fill="#0f3460" stroke="#533483" stroke-width="2px" />
<rect x="560.7349999999999" y="598" width="360.90000000000003" height="36" rx="0" ry="0" fill="#0f3460" stroke="#533483" stroke-width="2px" />
<rect x="133.9974999999999" y="505" width="346.6" height="36" rx="0" ry="0" fill="#533483" stroke="#e94560" stroke-width="3px" />
<text x="648.2500000000002" y="58" text-anchor="middle" dy="0.35em" font-size="13" font-weight="500" fill="#fff">&quot;Post 1: Series Launch\n8,481 Sessions Overview&quot;</text>
<text x="287.2974999999999" y="151" text-anchor="middle" dy="0.35em" font-size="13" font-weight="500" fill="#fff">&quot;Post 3: iOS Client\n763 Sessions, SwiftUI&quot;</text>
<text x="810.2350000000001" y="244" text-anchor="middle" dy="0.35em" font-size="13" font-weight="500" fill="#fff">&quot;Post 4: 5-Layer Bridge\n4 Failures, 1 Architecture&quot;</text>
<text x="856.0625000000002" y="337" text-anchor="middle" dy="0.35em" font-size="13" font-weight="500" fill="#fff">&quot;Post 2: Multi-Agent Consensus\n3 Agents, Hard Gates&quot;</text>
<text x="1252.335" y="244" text-anchor="middle" dy="0.35em" font-size="13" font-weight="500" fill="#fff">&quot;Post 5: Prompt Engineering\n7 Layers, Defense-in-Depth&quot;</text>
<text x="1316.1774999999998" y="430" text-anchor="middle" dy="0.35em" font-size="13" font-weight="500" fill="#fff">&quot;Post 6: Parallel Worktrees\n194 Worktrees, Factory Scale&quot;</text>
<text x="238.32500000000005" y="58" text-anchor="middle" dy="0.35em" font-size="13" font-weight="500" fill="#fff">&quot;Post 7: No Unit Tests\nFunctional Validation Only&quot;</text>
<text x="1487.8975" y="337" text-anchor="middle" dy="0.35em" font-size="13" font-weight="500" fill="#fff">&quot;Post 8: Ralph Orchestrator\n10 Rust Crates, 30 Agents&quot;</text>
<text x="1593.5475" y="523" text-anchor="middle" dy="0.35em" font-size="13" font-weight="500" fill="#fff">&quot;Post 9: Code Tales\nAudio Stories from Repos&quot;</text>
<text x="741.185" y="616" text-anchor="middle" dy="0.35em" font-size="13" font-weight="500" fill="#fff">&quot;Post 10: Stitch MCP\n21 Screens, One Session&quot;</text>
<text x="307.2974999999999" y="523" text-anchor="middle" dy="0.35em" font-size="13" font-weight="500" fill="#fff">&quot;Post 11: AI Dev OS\n6 Subsystems, Capstone&quot;</text>
</svg>