<svg xmlns="http://www.w3.org/2000/svg" viewBox="0 0 1394.5500000000002 1139" width="1394.5500000000002" height="1139" style="--bg:#0d1117;--fg:#e6edf3;--line:#3d444d;--accent:#4493f8;--muted:#9198a1;background:var(--bg)">
<style>
  @import url('https://fonts.googleapis.com/css2?family=Inter:wght@400;500;600;700&amp;display=swap');
  text { font-family: 'Inter', system-ui, sans-serif; }
  svg {
    /* Derived from --bg and --fg (overridable via --line, --accent, etc.) */
    --_text:          var(--fg);
    --_text-sec:      var(--muted, color-mix(in srgb, var(--fg) 60%, var(--bg)));
    --_text-muted:    var(--muted, color-mix(in srgb, var(--fg) 40%, var(--bg)));
    --_text-faint:    color-mix(in srgb, var(--fg) 25%, var(--bg));
    --_line:          var(--line, color-mix(in srgb, var(--fg) 30%, var(--bg)));
    --_arrow:         var(--accent, color-mix(in srgb, var(--fg) 50%, var(--bg)));
    --_node-fill:     var(--surface, color-mix(in srgb, var(--fg) 3%, var(--bg)));
    --_node-stroke:   var(--border, color-mix(in srgb, var(--fg) 20%, var(--bg)));
    --_group-fill:    var(--bg);
    --_group-hdr:     color-mix(in srgb, var(--fg) 5%, var(--bg));
    --_inner-stroke:  color-mix(in srgb, var(--fg) 12%, var(--bg));
    --_key-badge:     color-mix(in srgb, var(--fg) 10%, var(--bg));
  }
</style>
<defs>
  <marker id="arrowhead" markerWidth="8" markerHeight="4.8" refX="8" refY="2.4" orient="auto">
    <polygon points="0 0, 8 2.4, 0 4.8" fill="var(--_arrow)" />
  </marker>
  <marker id="arrowhead-start" markerWidth="8" markerHeight="4.8" refX="0" refY="2.4" orient="auto-start-reverse">
    <polygon points="8 0, 0 2.4, 8 4.8" fill="var(--_arrow)" />
  </marker>
</defs>
<polyline points="1203.41,541 1203.41,598" fill="none" stroke="var(--_line)" stroke-width="0.75" marker-end="url(#arrowhead)" />
<polyline points="1203.41,634 1203.41,691" fill="none" stroke="var(--_line)" stroke-width="0.75" marker-end="url(#arrowhead)" />
<polyline points="1203.41,727 1203.41,755.5 1293.3500000000001,755.5 1293.3500000000001,784" fill="none" stroke="var(--_line)" stroke-width="0.75" marker-end="url(#arrowhead)" />
<polyline points="1203.41,727 1203.41,755.5 1053.71,755.5 1053.71,784" fill="none" stroke="var(--_line)" stroke-width="0.75" marker-end="url(#arrowhead)" />
<polyline points="1293.3500000000001,820 1293.3500000000001,895 1109.035,895" fill="none" stroke="var(--_line)" stroke-width="0.75" marker-end="url(#arrowhead)" />
<polyline points="1053.71,820 1053.71,877" fill="none" stroke="var(--_line)" stroke-width="0.75" marker-end="url(#arrowhead)" />
<polyline points="1053.71,913 1053.71,970" fill="none" stroke="var(--_line)" stroke-width="0.75" marker-end="url(#arrowhead)" />
<polyline points="1053.71,1006 1053.71,1081 675.94,1081" fill="none" stroke="var(--_line)" stroke-width="0.75" marker-end="url(#arrowhead)" />
<polyline points="624.19,1063 624.19,1034.5 502.95000000000005,1034.5 502.95000000000005,58 453.19500000000005,58" fill="none" stroke="var(--_line)" stroke-width="0.75" marker-end="url(#arrowhead)" />
<polyline points="529.97,76 529.97,104.5 330.53,104.5 330.53,133" fill="none" stroke="var(--_line)" stroke-width="0.75" marker-end="url(#arrowhead)" />
<polyline points="529.97,76 529.97,104.5 624.19,104.5 624.19,133" fill="none" stroke="var(--_line)" stroke-width="0.75" marker-end="url(#arrowhead)" />
<polyline points="624.19,169 624.19,1063" fill="none" stroke="var(--_line)" stroke-width="0.75" marker-end="url(#arrowhead)" />
<polyline points="330.53,169 330.53,226" fill="none" stroke="var(--_line)" stroke-width="0.75" marker-end="url(#arrowhead)" />
<polyline points="330.53,262 330.53,290.5 225.30999999999995,290.5 225.30999999999995,319" fill="none" stroke="var(--_line)" stroke-width="0.75" marker-end="url(#arrowhead)" />
<polyline points="330.53,262 330.53,290.5 380.28,290.5 380.28,616 400.155,616" fill="none" stroke="var(--_line)" stroke-width="0.75" marker-end="url(#arrowhead)" />
<polyline points="225.30999999999995,355 225.30999999999995,412" fill="none" stroke="var(--_line)" stroke-width="0.75" marker-end="url(#arrowhead)" />
<polyline points="225.30999999999995,448 225.30999999999995,505" fill="none" stroke="var(--_line)" stroke-width="0.75" marker-end="url(#arrowhead)" />
<polyline points="225.30999999999995,541 225.30999999999995,616 260.905,616" fill="none" stroke="var(--_line)" stroke-width="0.75" marker-end="url(#arrowhead)" />
<polyline points="330.53,634 330.53,691" fill="none" stroke="var(--_line)" stroke-width="0.75" marker-end="url(#arrowhead)" />
<polyline points="330.53,727 330.53,784" fill="none" stroke="var(--_line)" stroke-width="0.75" marker-end="url(#arrowhead)" />
<polyline points="330.53,820 330.53,848.5 759.73,848.5 759.73,895 998.385,895" fill="none" stroke="var(--_line)" stroke-width="0.75" marker-end="url(#arrowhead)" />
<polyline points="330.53,820 330.53,848.5 260.76,848.5 260.76,877" fill="none" stroke="var(--_line)" stroke-width="0.75" marker-end="url(#arrowhead)" />
<polyline points="330.53,820 330.53,848.5 400.3,848.5 400.3,877" fill="none" stroke="var(--_line)" stroke-width="0.75" marker-end="url(#arrowhead)" />
<polyline points="330.53,820 330.53,848.5 135.52,848.5 135.52,877" fill="none" stroke="var(--_line)" stroke-width="0.75" marker-end="url(#arrowhead)" />
<polyline points="260.76,913 260.76,970" fill="none" stroke="var(--_line)" stroke-width="0.75" marker-end="url(#arrowhead)" />
<polyline points="400.3,913 400.3,970" fill="none" stroke="var(--_line)" stroke-width="0.75" marker-end="url(#arrowhead)" />
<polyline points="135.52,913 135.52,970" fill="none" stroke="var(--_line)" stroke-width="0.75" marker-end="url(#arrowhead)" />
<polyline points="135.52,1006 135.52,1063" fill="none" stroke="var(--_line)" stroke-width="0.75" marker-end="url(#arrowhead)" />
<rect x="1081.01" y="556" width="244.8" height="27" rx="4" ry="4" fill="var(--bg)" stroke="var(--_inner-stroke)" stroke-width="0.5" />
<text x="1203.41" y="569.5" text-anchor="middle" dy="0.35em" font-size="11" font-weight="400" fill="var(--_text-muted)">ralph run --config loop.toml &quot;objective&quot;</text>
<rect x="1126.77" y="649" width="153.28" height="27" rx="4" ry="4" fill="var(--bg)" stroke="var(--_inner-stroke)" stroke-width="0.5" />
<text x="1203.41" y="662.5" text-anchor="middle" dy="0.35em" font-size="11" font-weight="400" fill="var(--_text-muted)">Check for existing state</text>
<rect x="1231.0100000000002" y="742" width="124.68" height="27" rx="4" ry="4" fill="var(--bg)" stroke="var(--_inner-stroke)" stroke-width="0.5" />
<text x="1293.3500000000001" y="755.5" text-anchor="middle" dy="0.35em" font-size="11" font-weight="400" fill="var(--_text-muted)">No state file found</text>
<rect x="922.73" y="742" width="261.96000000000004" height="27" rx="4" ry="4" fill="var(--bg)" stroke="var(--_inner-stroke)" stroke-width="0.5" />
<text x="1053.71" y="755.5" text-anchor="middle" dy="0.35em" font-size="11" font-weight="400" fill="var(--_text-muted)">State file exists\n(resume_on_start = true)</text>
<rect x="1228.15" y="835" width="130.4" height="27" rx="4" ry="4" fill="var(--bg)" stroke="var(--_inner-stroke)" stroke-width="0.5" />
<text x="1293.3500000000001" y="848.5" text-anchor="middle" dy="0.35em" font-size="11" font-weight="400" fill="var(--_text-muted)">Create initial state</text>
<rect x="891.27" y="835" width="324.88" height="27" rx="4" ry="4" fill="var(--bg)" stroke="var(--_inner-stroke)" stroke-width="0.5" />
<text x="1053.71" y="848.5" text-anchor="middle" dy="0.35em" font-size="11" font-weight="400" fill="var(--_text-muted)">Restore iteration counter,\ncurrent hat, task progress</text>
<rect x="937.03" y="928" width="233.36" height="27" rx="4" ry="4" fill="var(--bg)" stroke="var(--_inner-stroke)" stroke-width="0.5" />
<text x="1053.71" y="941.5" text-anchor="middle" dy="0.35em" font-size="11" font-weight="400" fill="var(--_text-muted)">Load specs, plans,\nmemories, guidance</text>
<rect x="928.45" y="1021" width="250.52" height="27" rx="4" ry="4" fill="var(--bg)" stroke="var(--_inner-stroke)" stroke-width="0.5" />
<text x="1053.71" y="1034.5" text-anchor="middle" dy="0.35em" font-size="11" font-weight="400" fill="var(--_text-muted)">Coordinator picks hat\nbased on event bus</text>
<rect x="397.71000000000004" y="556" width="210.48000000000002" height="27" rx="4" ry="4" fill="var(--bg)" stroke="var(--_inner-stroke)" stroke-width="0.5" />
<text x="502.95000000000005" y="569.5" text-anchor="middle" dy="0.35em" font-size="11" font-weight="400" fill="var(--_text-muted)">Agent works in\nhat-scoped context</text>
<rect x="222.42999999999995" y="91" width="216.20000000000002" height="27" rx="4" ry="4" fill="var(--bg)" stroke="var(--_inner-stroke)" stroke-width="0.5" />
<text x="330.53" y="104.5" text-anchor="middle" dy="0.35em" font-size="11" font-weight="400" fill="var(--_text-muted)">All gates pass\n(build, lint, test)</text>
<rect x="584.73" y="91" width="78.92" height="27" rx="4" ry="4" fill="var(--bg)" stroke="var(--_inner-stroke)" stroke-width="0.5" />
<text x="624.19" y="104.5" text-anchor="middle" dy="0.35em" font-size="11" font-weight="400" fill="var(--_text-muted)">Gate failed</text>
<rect x="544.69" y="602.5" width="159" height="27" rx="4" ry="4" fill="var(--bg)" stroke="var(--_inner-stroke)" stroke-width="0.5" />
<text x="624.19" y="616" text-anchor="middle" dy="0.35em" font-size="11" font-weight="400" fill="var(--_text-muted)">Agent must fix\nand retry</text>
<rect x="271.04999999999995" y="184" width="118.96000000000001" height="27" rx="4" ry="4" fill="var(--bg)" stroke="var(--_inner-stroke)" stroke-width="0.5" />
<text x="330.53" y="197.5" text-anchor="middle" dy="0.35em" font-size="11" font-weight="400" fill="var(--_text-muted)">Iteration complete</text>
<rect x="145.80999999999995" y="277" width="159" height="27" rx="4" ry="4" fill="var(--bg)" stroke="var(--_inner-stroke)" stroke-width="0.5" />
<text x="225.30999999999995" y="290.5" text-anchor="middle" dy="0.35em" font-size="11" font-weight="400" fill="var(--_text-muted)">iteration % interval == 0</text>
<rect x="303.64" y="416.5" width="153.28" height="27" rx="4" ry="4" fill="var(--bg)" stroke="var(--_inner-stroke)" stroke-width="0.5" />
<text x="380.28" y="430" text-anchor="middle" dy="0.35em" font-size="11" font-weight="400" fill="var(--_text-muted)">Not checkpoint iteration</text>
<rect x="125.78999999999994" y="370" width="199.04000000000002" height="27" rx="4" ry="4" fill="var(--bg)" stroke="var(--_inner-stroke)" stroke-width="0.5" />
<text x="225.30999999999995" y="383.5" text-anchor="middle" dy="0.35em" font-size="11" font-weight="400" fill="var(--_text-muted)">Atomic write to\nloop-state.json</text>
<rect x="134.36999999999995" y="463" width="181.88" height="27" rx="4" ry="4" fill="var(--bg)" stroke="var(--_inner-stroke)" stroke-width="0.5" />
<text x="225.30999999999995" y="476.5" text-anchor="middle" dy="0.35em" font-size="11" font-weight="400" fill="var(--_text-muted)">Send checkpoint\nnotification</text>
<rect x="262.46999999999997" y="649" width="136.12" height="27" rx="4" ry="4" fill="var(--bg)" stroke="var(--_inner-stroke)" stroke-width="0.5" />
<text x="330.53" y="662.5" text-anchor="middle" dy="0.35em" font-size="11" font-weight="400" fill="var(--_text-muted)">Check if work remains</text>
<rect x="273.90999999999997" y="742" width="113.24000000000001" height="27" rx="4" ry="4" fill="var(--bg)" stroke="var(--_inner-stroke)" stroke-width="0.5" />
<text x="330.53" y="755.5" text-anchor="middle" dy="0.35em" font-size="11" font-weight="400" fill="var(--_text-muted)">stop-hook.sh runs</text>
<rect x="640.19" y="835" width="239.08" height="27" rx="4" ry="4" fill="var(--bg)" stroke="var(--_inner-stroke)" stroke-width="0.5" />
<text x="759.73" y="848.5" text-anchor="middle" dy="0.35em" font-size="11" font-weight="400" fill="var(--_text-muted)">Tasks remain\n&quot;The boulder never stops&quot;</text>
<rect x="195.56" y="835" width="130.4" height="27" rx="4" ry="4" fill="var(--bg)" stroke="var(--_inner-stroke)" stroke-width="0.5" />
<text x="260.76" y="848.5" text-anchor="middle" dy="0.35em" font-size="11" font-weight="400" fill="var(--_text-muted)">kill.signal detected</text>
<rect x="337.96000000000004" y="835" width="124.68" height="27" rx="4" ry="4" fill="var(--bg)" stroke="var(--_inner-stroke)" stroke-width="0.5" />
<text x="400.3" y="848.5" text-anchor="middle" dy="0.35em" font-size="11" font-weight="400" fill="var(--_text-muted)">pause.flag detected</text>
<rect x="87.48000000000002" y="835" width="96.08" height="27" rx="4" ry="4" fill="var(--bg)" stroke="var(--_inner-stroke)" stroke-width="0.5" />
<text x="135.52" y="848.5" text-anchor="middle" dy="0.35em" font-size="11" font-weight="400" fill="var(--_text-muted)">All tasks done</text>
<rect x="209.85999999999999" y="928" width="101.8" height="27" rx="4" ry="4" fill="var(--bg)" stroke="var(--_inner-stroke)" stroke-width="0.5" />
<text x="260.76" y="941.5" text-anchor="middle" dy="0.35em" font-size="11" font-weight="400" fill="var(--_text-muted)">Force terminate</text>
<rect x="335.1" y="928" width="130.4" height="27" rx="4" ry="4" fill="var(--bg)" stroke="var(--_inner-stroke)" stroke-width="0.5" />
<text x="400.3" y="941.5" text-anchor="middle" dy="0.35em" font-size="11" font-weight="400" fill="var(--_text-muted)">Pause (resume later)</text>
<rect x="78.9" y="928" width="113.24000000000001" height="27" rx="4" ry="4" fill="var(--bg)" stroke="var(--_inner-stroke)" stroke-width="0.5" />
<text x="135.52" y="941.5" text-anchor="middle" dy="0.35em" font-size="11" font-weight="400" fill="var(--_text-muted)">Write final state</text>
<rect x="36" y="1021" width="199.04000000000002" height="27" rx="4" ry="4" fill="var(--bg)" stroke="var(--_inner-stroke)" stroke-width="0.5" />
<text x="135.52" y="1034.5" text-anchor="middle" dy="0.35em" font-size="11" font-weight="400" fill="var(--_text-muted)">Loop complete\n(notify Telegram)</text>
<circle cx="1203.41" cy="523" r="16" fill="var(--_text)" stroke="none" />
<rect x="1151.66" y="598" width="103.5" height="36" rx="6" ry="6" fill="var(--_node-fill)" stroke="var(--_node-stroke)" stroke-width="0.75" />
<rect x="1155.2350000000001" y="691" width="96.35000000000001" height="36" rx="6" ry="6" fill="var(--_node-fill)" stroke="var(--_node-stroke)" stroke-width="0.75" />
<rect x="1241.6000000000001" y="784" width="103.5" height="36" rx="6" ry="6" fill="var(--_node-fill)" stroke="var(--_node-stroke)" stroke-width="0.75" />
<rect x="966.21" y="784" width="175" height="36" rx="6" ry="6" fill="var(--_node-fill)" stroke="var(--_node-stroke)" stroke-width="0.75" />
<rect x="998.385" y="877" width="110.65" height="36" rx="6" ry="6" fill="var(--_node-fill)" stroke="var(--_node-stroke)" stroke-width="0.75" />
<rect x="1005.5350000000001" y="970" width="96.35000000000001" height="36" rx="6" ry="6" fill="var(--_node-fill)" stroke="var(--_node-stroke)" stroke-width="0.75" />
<rect x="572.44" y="1063" width="103.5" height="36" rx="6" ry="6" fill="var(--_node-fill)" stroke="var(--_node-stroke)" stroke-width="0.75" />
<rect x="453.19500000000005" y="40" width="153.55" height="36" rx="6" ry="6" fill="var(--_node-fill)" stroke="var(--_node-stroke)" stroke-width="0.75" />
<rect x="285.92999999999995" y="133" width="89.2" height="36" rx="6" ry="6" fill="var(--_node-fill)" stroke="var(--_node-stroke)" stroke-width="0.75" />
<rect x="579.59" y="133" width="89.2" height="36" rx="6" ry="6" fill="var(--_node-fill)" stroke="var(--_node-stroke)" stroke-width="0.75" />
<rect x="250.17999999999995" y="226" width="160.70000000000002" height="36" rx="6" ry="6" fill="var(--_node-fill)" stroke="var(--_node-stroke)" stroke-width="0.75" />
<rect x="155.68499999999995" y="319" width="139.25" height="36" rx="6" ry="6" fill="var(--_node-fill)" stroke="var(--_node-stroke)" stroke-width="0.75" />
<rect x="260.905" y="598" width="139.25" height="36" rx="6" ry="6" fill="var(--_node-fill)" stroke="var(--_node-stroke)" stroke-width="0.75" />
<rect x="166.40999999999994" y="412" width="117.80000000000001" height="36" rx="6" ry="6" fill="var(--_node-fill)" stroke="var(--_node-stroke)" stroke-width="0.75" />
<rect x="159.25999999999993" y="505" width="132.10000000000002" height="36" rx="6" ry="6" fill="var(--_node-fill)" stroke="var(--_node-stroke)" stroke-width="0.75" />
<rect x="268.05499999999995" y="691" width="124.95" height="36" rx="6" ry="6" fill="var(--_node-fill)" stroke="var(--_node-stroke)" stroke-width="0.75" />
<rect x="257.33" y="784" width="146.4" height="36" rx="6" ry="6" fill="var(--_node-fill)" stroke="var(--_node-stroke)" stroke-width="0.75" />
<rect x="209.01" y="877" width="103.5" height="36" rx="6" ry="6" fill="var(--_node-fill)" stroke="var(--_node-stroke)" stroke-width="0.75" />
<rect x="348.55" y="877" width="103.5" height="36" rx="6" ry="6" fill="var(--_node-fill)" stroke="var(--_node-stroke)" stroke-width="0.75" />
<rect x="90.92000000000002" y="877" width="89.2" height="36" rx="6" ry="6" fill="var(--_node-fill)" stroke="var(--_node-stroke)" stroke-width="0.75" />
<circle cx="260.76" cy="988" r="16" fill="none" stroke="var(--_text)" stroke-width="1.5" />
<circle cx="260.76" cy="988" r="12" fill="var(--_text)" stroke="none" />
<circle cx="400.3" cy="988" r="16" fill="none" stroke="var(--_text)" stroke-width="1.5" />
<circle cx="400.3" cy="988" r="12" fill="var(--_text)" stroke="none" />
<rect x="83.77000000000001" y="970" width="103.5" height="36" rx="6" ry="6" fill="var(--_node-fill)" stroke="var(--_node-stroke)" stroke-width="0.75" />
<circle cx="135.52" cy="1081" r="16" fill="none" stroke="var(--_text)" stroke-width="1.5" />
<circle cx="135.52" cy="1081" r="12" fill="var(--_text)" stroke="none" />

<text x="1203.41" y="616" text-anchor="middle" dy="0.35em" font-size="13" font-weight="500" fill="var(--_text)">Initialize</text>
<text x="1203.41" y="709" text-anchor="middle" dy="0.35em" font-size="13" font-weight="500" fill="var(--_text)">LoadState</text>
<text x="1293.3500000000001" y="802" text-anchor="middle" dy="0.35em" font-size="13" font-weight="500" fill="var(--_text)">FreshStart</text>
<text x="1053.71" y="802" text-anchor="middle" dy="0.35em" font-size="13" font-weight="500" fill="var(--_text)">ResumeFromCheckpoint</text>
<text x="1053.71" y="895" text-anchor="middle" dy="0.35em" font-size="13" font-weight="500" fill="var(--_text)">ReadContext</text>
<text x="1053.71" y="988" text-anchor="middle" dy="0.35em" font-size="13" font-weight="500" fill="var(--_text)">SelectHat</text>
<text x="624.19" y="1081" text-anchor="middle" dy="0.35em" font-size="13" font-weight="500" fill="var(--_text)">ExecuteHat</text>
<text x="529.97" y="58" text-anchor="middle" dy="0.35em" font-size="13" font-weight="500" fill="var(--_text)">BackpressureGates</text>
<text x="330.53" y="151" text-anchor="middle" dy="0.35em" font-size="13" font-weight="500" fill="var(--_text)">GatePass</text>
<text x="624.19" y="151" text-anchor="middle" dy="0.35em" font-size="13" font-weight="500" fill="var(--_text)">GateFail</text>
<text x="330.53" y="244" text-anchor="middle" dy="0.35em" font-size="13" font-weight="500" fill="var(--_text)">CheckpointDecision</text>
<text x="225.30999999999995" y="337" text-anchor="middle" dy="0.35em" font-size="13" font-weight="500" fill="var(--_text)">WriteCheckpoint</text>
<text x="330.53" y="616" text-anchor="middle" dy="0.35em" font-size="13" font-weight="500" fill="var(--_text)">CheckCompletion</text>
<text x="225.30999999999995" y="430" text-anchor="middle" dy="0.35em" font-size="13" font-weight="500" fill="var(--_text)">PersistState</text>
<text x="225.30999999999995" y="523" text-anchor="middle" dy="0.35em" font-size="13" font-weight="500" fill="var(--_text)">NotifyTelegram</text>
<text x="330.53" y="709" text-anchor="middle" dy="0.35em" font-size="13" font-weight="500" fill="var(--_text)">StopHookCheck</text>
<text x="330.53" y="802" text-anchor="middle" dy="0.35em" font-size="13" font-weight="500" fill="var(--_text)">StopHookDecision</text>
<text x="260.76" y="895" text-anchor="middle" dy="0.35em" font-size="13" font-weight="500" fill="var(--_text)">KillSignal</text>
<text x="400.3" y="895" text-anchor="middle" dy="0.35em" font-size="13" font-weight="500" fill="var(--_text)">PauseState</text>
<text x="135.52" y="895" text-anchor="middle" dy="0.35em" font-size="13" font-weight="500" fill="var(--_text)">Complete</text>


<text x="135.52" y="988" text-anchor="middle" dy="0.35em" font-size="13" font-weight="500" fill="var(--_text)">FinalState</text>

</svg>