<svg xmlns="http://www.w3.org/2000/svg" viewBox="0 0 1588.4 3730" width="1588.4" height="3730" style="--bg:#0d1117;--fg:#e6edf3;--line:#3d444d;--accent:#4493f8;--muted:#9198a1;background:var(--bg)">
<style>
  @import url('https://fonts.googleapis.com/css2?family=Inter:wght@400;500;600;700&amp;display=swap');
  text { font-family: 'Inter', system-ui, sans-serif; }
  svg {
    /* Derived from --bg and --fg (overridable via --line, --accent, etc.) */
    --_text:          var(--fg);
    --_text-sec:      var(--muted, color-mix(in srgb, var(--fg) 60%, var(--bg)));
    --_text-muted:    var(--muted, color-mix(in srgb, var(--fg) 40%, var(--bg)));
    --_text-faint:    color-mix(in srgb, var(--fg) 25%, var(--bg));
    --_line:          var(--line, color-mix(in srgb, var(--fg) 30%, var(--bg)));
    --_arrow:         var(--accent, color-mix(in srgb, var(--fg) 50%, var(--bg)));
    --_node-fill:     var(--surface, color-mix(in srgb, var(--fg) 3%, var(--bg)));
    --_node-stroke:   var(--border, color-mix(in srgb, var(--fg) 20%, var(--bg)));
    --_group-fill:    var(--bg);
    --_group-hdr:     color-mix(in srgb, var(--fg) 5%, var(--bg));
    --_inner-stroke:  color-mix(in srgb, var(--fg) 12%, var(--bg));
    --_key-badge:     color-mix(in srgb, var(--fg) 10%, var(--bg));
  }
</style>
<defs>
  <marker id="arrowhead" markerWidth="8" markerHeight="4.8" refX="8" refY="2.4" orient="auto">
    <polygon points="0 0, 8 2.4, 0 4.8" fill="var(--_arrow)" />
  </marker>
  <marker id="arrowhead-start" markerWidth="8" markerHeight="4.8" refX="0" refY="2.4" orient="auto-start-reverse">
    <polygon points="8 0, 0 2.4, 8 4.8" fill="var(--_arrow)" />
  </marker>
</defs>
<rect x="40" y="40" width="440.6500000000001" height="112" rx="0" ry="0" fill="var(--_group-fill)" stroke="var(--_node-stroke)" stroke-width="1" />
<rect x="40" y="40" width="440.6500000000001" height="28" rx="0" ry="0" fill="var(--_group-hdr)" stroke="var(--_node-stroke)" stroke-width="1" />
<text x="52" y="54" dy="0.35em" font-size="12" font-weight="600" fill="var(--_text-sec)">&quot;Feature Request&quot;</text>
<rect x="83.13749999999993" y="213" width="716.7875000000001" height="597" rx="0" ry="0" fill="var(--_group-fill)" stroke="var(--_node-stroke)" stroke-width="1" />
<rect x="83.13749999999993" y="213" width="716.7875000000001" height="28" rx="0" ry="0" fill="var(--_group-hdr)" stroke="var(--_node-stroke)" stroke-width="1" />
<text x="95.13749999999993" y="227" dy="0.35em" font-size="12" font-weight="600" fill="var(--_text-sec)">&quot;1. RALPLAN — Adversarial Planning&quot;</text>
<rect x="230.44999999999982" y="871" width="868.5750000000003" height="424" rx="0" ry="0" fill="var(--_group-fill)" stroke="var(--_node-stroke)" stroke-width="1" />
<rect x="230.44999999999982" y="871" width="868.5750000000003" height="28" rx="0" ry="0" fill="var(--_group-hdr)" stroke="var(--_node-stroke)" stroke-width="1" />
<text x="242.44999999999982" y="885" dy="0.35em" font-size="12" font-weight="600" fill="var(--_text-sec)">&quot;2. Specum — Specification Pipeline&quot;</text>
<rect x="429.7249999999999" y="1359" width="500.15000000000003" height="493" rx="0" ry="0" fill="var(--_group-fill)" stroke="var(--_node-stroke)" stroke-width="1" />
<rect x="429.7249999999999" y="1359" width="500.15000000000003" height="28" rx="0" ry="0" fill="var(--_group-hdr)" stroke="var(--_node-stroke)" stroke-width="1" />
<text x="441.7249999999999" y="1373" dy="0.35em" font-size="12" font-weight="600" fill="var(--_text-sec)">&quot;3. Team Pipeline — Multi-Agent Execution&quot;</text>
<rect x="459.4749999999999" y="1933" width="440.6500000000001" height="909" rx="0" ry="0" fill="var(--_group-fill)" stroke="var(--_node-stroke)" stroke-width="1" />
<rect x="459.4749999999999" y="1933" width="440.6500000000001" height="28" rx="0" ry="0" fill="var(--_group-hdr)" stroke="var(--_node-stroke)" stroke-width="1" />
<text x="471.4749999999999" y="1947" dy="0.35em" font-size="12" font-weight="600" fill="var(--_text-sec)">&quot;4. Ralph Loop — Persistent Execution&quot;</text>
<rect x="373.67499999999995" y="2886" width="612.25" height="804" rx="0" ry="0" fill="var(--_group-fill)" stroke="var(--_node-stroke)" stroke-width="1" />
<rect x="373.67499999999995" y="2886" width="612.25" height="28" rx="0" ry="0" fill="var(--_group-hdr)" stroke="var(--_node-stroke)" stroke-width="1" />
<text x="385.67499999999995" y="2900" dy="0.35em" font-size="12" font-weight="600" fill="var(--_text-sec)">&quot;5. GSD — Evidence-Gated Lifecycle&quot;</text>
<rect x="500.6500000000001" y="40" width="1026.95" height="112" rx="0" ry="0" fill="var(--_group-fill)" stroke="var(--_node-stroke)" stroke-width="1" />
<rect x="500.6500000000001" y="40" width="1026.95" height="28" rx="0" ry="0" fill="var(--_group-hdr)" stroke="var(--_node-stroke)" stroke-width="1" />
<text x="512.6500000000001" y="54" dy="0.35em" font-size="12" font-weight="600" fill="var(--_text-sec)">&quot;OMC Agent Catalog (25 agents across all stages)&quot;</text>
<polyline points="260.3249999999998,132 260.3249999999998,287 153.3499999999998,287" fill="none" stroke="var(--_line)" stroke-width="0.75" marker-end="url(#arrowhead)" />
<polyline points="376.6999999999998,305 376.6999999999998,425" fill="none" stroke="var(--_line)" stroke-width="0.75" marker-end="url(#arrowhead)" />
<polyline points="376.6999999999998,461 376.6999999999998,598" fill="none" stroke="var(--_line)" stroke-width="0.75" marker-end="url(#arrowhead)" />
<polyline points="376.6999999999998,634 376.6999999999998,754" fill="none" stroke="var(--_line)" stroke-width="0.75" marker-end="url(#arrowhead)" />
<polyline points="376.6999999999998,790 376.6999999999998,945 316.62499999999994,945" fill="none" stroke="var(--_line)" stroke-width="0.75" marker-end="url(#arrowhead)" />
<polyline points="543.55,963 543.55,1083" fill="none" stroke="var(--_line)" stroke-width="0.75" marker-end="url(#arrowhead)" />
<polyline points="543.55,1119 543.55,1239" fill="none" stroke="var(--_line)" stroke-width="0.75" marker-end="url(#arrowhead)" />
<polyline points="543.55,1275 543.55,1425 679.8,1425" fill="none" stroke="var(--_line)" stroke-width="0.75" marker-end="url(#arrowhead)" />
<polyline points="679.8,1822 679.8,1989" fill="none" stroke="var(--_line)" stroke-width="0.75" marker-end="url(#arrowhead)" />
<polyline points="679.8,2025 679.8,2145" fill="none" stroke="var(--_line)" stroke-width="0.75" marker-end="url(#arrowhead)" />
<polyline points="679.8,2181 679.8,2301" fill="none" stroke="var(--_line)" stroke-width="0.75" marker-end="url(#arrowhead)" />
<polyline points="679.8,2337 679.8,2457" fill="none" stroke="var(--_line)" stroke-width="0.75" marker-end="url(#arrowhead)" />
<polyline points="679.8,2493 679.8,2630" fill="none" stroke="var(--_line)" stroke-width="0.75" stroke-dasharray="4 4" marker-end="url(#arrowhead)" />
<polyline points="679.8,2666 679.8,2786" fill="none" stroke="var(--_line)" stroke-width="0.75" marker-end="url(#arrowhead)" />
<polyline points="679.8,2822 679.8,2942" fill="none" stroke="var(--_line)" stroke-width="0.75" marker-end="url(#arrowhead)" />
<polyline points="679.8,2978 679.8,3115" fill="none" stroke="var(--_line)" stroke-width="0.75" marker-end="url(#arrowhead)" />
<polyline points="679.8,3151 679.8,3288" fill="none" stroke="var(--_line)" stroke-width="0.75" marker-end="url(#arrowhead)" />
<polyline points="679.8,3324 679.8,3461" fill="none" stroke="var(--_line)" stroke-width="0.75" marker-end="url(#arrowhead)" />
<polyline points="679.8,3497 679.8,3634" fill="none" stroke="var(--_line)" stroke-width="0.75" marker-end="url(#arrowhead)" />
<polyline points="1035.575,132 1035.575,152 599.8125,152 599.8125,287 600.0499999999998,287" fill="none" stroke="var(--_line)" stroke-width="0.75" stroke-dasharray="4 4" marker-end="url(#arrowhead)" />
<polyline points="1035.575,132 1035.575,152 1364.9375,152 1364.9375,1623.5 929.875,1623.5" fill="none" stroke="var(--_line)" stroke-width="0.75" stroke-dasharray="4 4" marker-end="url(#arrowhead)" />
<polyline points="1035.575,132 1035.575,152 992.6750000000001,152 992.6750000000001,945 770.4749999999999,945" fill="none" stroke="var(--_line)" stroke-width="0.75" stroke-dasharray="4 4" marker-end="url(#arrowhead)" />
<polyline points="679.8,1443 679.8,1483" fill="none" stroke="var(--_line)" stroke-width="0.75" marker-end="url(#arrowhead)" />
<polyline points="679.8,1519 679.8,1559" fill="none" stroke="var(--_line)" stroke-width="0.75" marker-end="url(#arrowhead)" />
<polyline points="679.8,1595 679.8,1635" fill="none" stroke="var(--_line)" stroke-width="0.75" marker-end="url(#arrowhead)" />
<polyline points="679.8,1671 679.8,1728" fill="none" stroke="var(--_line)" stroke-width="0.75" marker-end="url(#arrowhead)" />
<polyline points="679.8,1764 679.8,1804" fill="none" stroke="var(--_line)" stroke-width="0.75" marker-end="url(#arrowhead)" />
<rect x="351.5399999999998" y="516" width="50.32" height="27" rx="4" ry="4" fill="var(--bg)" stroke="var(--_inner-stroke)" stroke-width="0.5" />
<text x="376.6999999999998" y="529.5" text-anchor="middle" dy="0.35em" font-size="11" font-weight="400" fill="var(--_text-muted)">REJECT</text>
<rect x="348.67999999999984" y="845" width="56.04" height="27" rx="4" ry="4" fill="var(--bg)" stroke="var(--_inner-stroke)" stroke-width="0.5" />
<text x="376.6999999999998" y="858.5" text-anchor="middle" dy="0.35em" font-size="11" font-weight="400" fill="var(--_text-muted)">APPROVE</text>
<rect x="660.3599999999999" y="1907" width="38.88" height="27" rx="4" ry="4" fill="var(--bg)" stroke="var(--_inner-stroke)" stroke-width="0.5" />
<text x="679.8" y="1920.5" text-anchor="middle" dy="0.35em" font-size="11" font-weight="400" fill="var(--_text-muted)">PASS</text>
<rect x="626.04" y="2548" width="107.52000000000001" height="27" rx="4" ry="4" fill="var(--bg)" stroke="var(--_inner-stroke)" stroke-width="0.5" />
<text x="679.8" y="2561.5" text-anchor="middle" dy="0.35em" font-size="11" font-weight="400" fill="var(--_text-muted)">session boundary</text>
<rect x="634.62" y="3033" width="90.36" height="27" rx="4" ry="4" fill="var(--bg)" stroke="var(--_inner-stroke)" stroke-width="0.5" />
<text x="679.8" y="3046.5" text-anchor="middle" dy="0.35em" font-size="11" font-weight="400" fill="var(--_text-muted)">evidence gate</text>
<rect x="634.62" y="3206" width="90.36" height="27" rx="4" ry="4" fill="var(--bg)" stroke="var(--_inner-stroke)" stroke-width="0.5" />
<text x="679.8" y="3219.5" text-anchor="middle" dy="0.35em" font-size="11" font-weight="400" fill="var(--_text-muted)">evidence gate</text>
<rect x="634.62" y="3379" width="90.36" height="27" rx="4" ry="4" fill="var(--bg)" stroke="var(--_inner-stroke)" stroke-width="0.5" />
<text x="679.8" y="3392.5" text-anchor="middle" dy="0.35em" font-size="11" font-weight="400" fill="var(--_text-muted)">evidence gate</text>
<rect x="634.62" y="3552" width="90.36" height="27" rx="4" ry="4" fill="var(--bg)" stroke="var(--_inner-stroke)" stroke-width="0.5" />
<text x="679.8" y="3565.5" text-anchor="middle" dy="0.35em" font-size="11" font-weight="400" fill="var(--_text-muted)">evidence gate</text>
<rect x="548.9125" y="187" width="101.8" height="27" rx="4" ry="4" fill="var(--bg)" stroke="var(--_inner-stroke)" stroke-width="0.5" />
<text x="599.8125" y="200.5" text-anchor="middle" dy="0.35em" font-size="11" font-weight="400" fill="var(--_text-muted)">provides agents</text>
<rect x="1314.0375" y="758.5" width="101.8" height="27" rx="4" ry="4" fill="var(--bg)" stroke="var(--_inner-stroke)" stroke-width="0.5" />
<text x="1364.9375" y="772" text-anchor="middle" dy="0.35em" font-size="11" font-weight="400" fill="var(--_text-muted)">provides agents</text>
<rect x="941.7750000000001" y="516" width="101.8" height="27" rx="4" ry="4" fill="var(--bg)" stroke="var(--_inner-stroke)" stroke-width="0.5" />
<text x="992.6750000000001" y="529.5" text-anchor="middle" dy="0.35em" font-size="11" font-weight="400" fill="var(--_text-muted)">provides agents</text>
<rect x="623.18" y="1686" width="113.24000000000001" height="27" rx="4" ry="4" fill="var(--bg)" stroke="var(--_inner-stroke)" stroke-width="0.5" />
<text x="679.8" y="1699.5" text-anchor="middle" dy="0.35em" font-size="11" font-weight="400" fill="var(--_text-muted)">FAIL: build error</text>
<rect x="61.9999999999998" y="96" width="396.65000000000003" height="36" rx="0" ry="0" fill="var(--_node-fill)" stroke="var(--_node-stroke)" stroke-width="0.75" />
<rect x="153.3499999999998" y="269" width="446.70000000000005" height="36" rx="0" ry="0" fill="var(--_node-fill)" stroke="var(--_node-stroke)" stroke-width="0.75" />
<rect x="131.8999999999998" y="425" width="489.6" height="36" rx="0" ry="0" fill="var(--_node-fill)" stroke="var(--_node-stroke)" stroke-width="0.75" />
<rect x="142.6249999999998" y="598" width="468.15000000000003" height="36" rx="0" ry="0" fill="var(--_node-fill)" stroke="var(--_node-stroke)" stroke-width="0.75" />
<rect x="167.6499999999998" y="754" width="418.1" height="36" rx="0" ry="0" fill="var(--_node-fill)" stroke="var(--_node-stroke)" stroke-width="0.75" />
<rect x="316.62499999999994" y="927" width="453.85" height="36" rx="0" ry="0" fill="var(--_node-fill)" stroke="var(--_node-stroke)" stroke-width="0.75" />
<rect x="323.775" y="1083" width="439.55" height="36" rx="0" ry="0" fill="var(--_node-fill)" stroke="var(--_node-stroke)" stroke-width="0.75" />
<rect x="313.04999999999995" y="1239" width="461.00000000000006" height="36" rx="0" ry="0" fill="var(--_node-fill)" stroke="var(--_node-stroke)" stroke-width="0.75" />
<rect x="506.49999999999994" y="1989" width="346.6" height="36" rx="0" ry="0" fill="var(--_node-fill)" stroke="var(--_node-stroke)" stroke-width="0.75" />
<rect x="502.92499999999995" y="2145" width="353.75" height="36" rx="0" ry="0" fill="var(--_node-fill)" stroke="var(--_node-stroke)" stroke-width="0.75" />
<rect x="502.92499999999995" y="2301" width="353.75" height="36" rx="0" ry="0" fill="var(--_node-fill)" stroke="var(--_node-stroke)" stroke-width="0.75" />
<rect x="481.4749999999999" y="2457" width="396.65000000000003" height="36" rx="0" ry="0" fill="var(--_node-fill)" stroke="var(--_node-stroke)" stroke-width="0.75" />
<rect x="492.19999999999993" y="2630" width="375.20000000000005" height="36" rx="0" ry="0" fill="var(--_node-fill)" stroke="var(--_node-stroke)" stroke-width="0.75" />
<rect x="495.775" y="2786" width="368.05" height="36" rx="0" ry="0" fill="var(--_node-fill)" stroke="var(--_node-stroke)" stroke-width="0.75" />
<rect x="510.07499999999993" y="2942" width="339.45000000000005" height="36" rx="0" ry="0" fill="var(--_node-fill)" stroke="var(--_node-stroke)" stroke-width="0.75" />
<rect x="449.29999999999995" y="3115" width="461.00000000000006" height="36" rx="0" ry="0" fill="var(--_node-fill)" stroke="var(--_node-stroke)" stroke-width="0.75" />
<rect x="395.67499999999995" y="3288" width="568.25" height="36" rx="0" ry="0" fill="var(--_node-fill)" stroke="var(--_node-stroke)" stroke-width="0.75" />
<rect x="438.57499999999993" y="3461" width="482.45000000000005" height="36" rx="0" ry="0" fill="var(--_node-fill)" stroke="var(--_node-stroke)" stroke-width="0.75" />
<rect x="477.9" y="3634" width="403.8" height="36" rx="0" ry="0" fill="var(--_node-fill)" stroke="var(--_node-stroke)" stroke-width="0.75" />
<rect x="565.55" y="96" width="940.0500000000001" height="36" rx="0" ry="0" fill="var(--_node-fill)" stroke="var(--_node-stroke)" stroke-width="0.75" />
<rect x="499.3499999999999" y="1407" width="360.90000000000003" height="36" rx="0" ry="0" fill="var(--_node-fill)" stroke="var(--_node-stroke)" stroke-width="0.75" />
<rect x="567.2749999999999" y="1483" width="225.05" height="36" rx="0" ry="0" fill="var(--_node-fill)" stroke="var(--_node-stroke)" stroke-width="0.75" />
<rect x="463.5999999999999" y="1559" width="432.40000000000003" height="36" rx="0" ry="0" fill="var(--_node-fill)" stroke="var(--_node-stroke)" stroke-width="0.75" />
<rect x="445.7249999999999" y="1635" width="468.15000000000003" height="36" rx="0" ry="0" fill="var(--_node-fill)" stroke="var(--_node-stroke)" stroke-width="0.75" />
<rect x="499.3499999999999" y="1728" width="360.90000000000003" height="36" rx="0" ry="0" fill="var(--_node-fill)" stroke="var(--_node-stroke)" stroke-width="0.75" />
<rect x="492.19999999999993" y="1804" width="375.20000000000005" height="36" rx="0" ry="0" fill="var(--_node-fill)" stroke="var(--_node-stroke)" stroke-width="0.75" />
<text x="260.3249999999998" y="114" text-anchor="middle" dy="0.35em" font-size="13" font-weight="500" fill="var(--_text)">&quot;&#39;Add payment processing\nwith Stripe integration&#39;&quot;</text>
<text x="376.6999999999998" y="287" text-anchor="middle" dy="0.35em" font-size="13" font-weight="500" fill="var(--_text)">&quot;Planner (opus)\nCreate initial plan:\n4 phases, 14 tasks&quot;</text>
<text x="376.6999999999998" y="443" text-anchor="middle" dy="0.35em" font-size="13" font-weight="500" fill="var(--_text)">&quot;Critic (opus)\nREJECT: hand-waving in\nTask 2.3, no spike task&quot;</text>
<text x="376.6999999999998" y="616" text-anchor="middle" dy="0.35em" font-size="13" font-weight="500" fill="var(--_text)">&quot;Planner (opus)\nRevise: add spike,\nconcretize descriptions&quot;</text>
<text x="376.6999999999998" y="772" text-anchor="middle" dy="0.35em" font-size="13" font-weight="500" fill="var(--_text)">&quot;Critic (opus)\nAPPROVE: 4 phases,\n15 tasks, 3 risks&quot;</text>
<text x="543.55" y="945" text-anchor="middle" dy="0.35em" font-size="13" font-weight="500" fill="var(--_text)">&quot;RequirementsStage\n(ProductManagerAgent)\nrequirements.md&quot;</text>
<text x="543.55" y="1101" text-anchor="middle" dy="0.35em" font-size="13" font-weight="500" fill="var(--_text)">&quot;DesignStage\n(ArchitectAgent)\ndesign.md + API contract&quot;</text>
<text x="543.55" y="1257" text-anchor="middle" dy="0.35em" font-size="13" font-weight="500" fill="var(--_text)">&quot;TaskStage\n(TaskPlannerAgent)\ntasks.md — 15 ordered tasks&quot;</text>
<text x="679.8" y="2007" text-anchor="middle" dy="0.35em" font-size="13" font-weight="500" fill="var(--_text)">&quot;Iteration 1-5:\nPhase 1 tasks (Foundation)&quot;</text>
<text x="679.8" y="2163" text-anchor="middle" dy="0.35em" font-size="13" font-weight="500" fill="var(--_text)">&quot;Iteration 6-10:\nPhase 2 tasks (Core Logic)&quot;</text>
<text x="679.8" y="2319" text-anchor="middle" dy="0.35em" font-size="13" font-weight="500" fill="var(--_text)">&quot;Iteration 11-14:\nPhase 3 tasks (API Layer)&quot;</text>
<text x="679.8" y="2475" text-anchor="middle" dy="0.35em" font-size="13" font-weight="500" fill="var(--_text)">&quot;Iteration 15:\nSession boundary — state persisted&quot;</text>
<text x="679.8" y="2648" text-anchor="middle" dy="0.35em" font-size="13" font-weight="500" fill="var(--_text)">&quot;New session resumes at\niteration 16 from disk&quot;</text>
<text x="679.8" y="2804" text-anchor="middle" dy="0.35em" font-size="13" font-weight="500" fill="var(--_text)">&quot;Iteration 16-20:\nPhase 4 tasks (Integration)&quot;</text>
<text x="679.8" y="2960" text-anchor="middle" dy="0.35em" font-size="13" font-weight="500" fill="var(--_text)">&quot;RESEARCH phase\nevidence: feasibility doc&quot;</text>
<text x="679.8" y="3133" text-anchor="middle" dy="0.35em" font-size="13" font-weight="500" fill="var(--_text)">&quot;EXECUTE phase\nevidence: build log,\nimplementation report&quot;</text>
<text x="679.8" y="3306" text-anchor="middle" dy="0.35em" font-size="13" font-weight="500" fill="var(--_text)">&quot;VERIFY phase\nevidence: verification report,\nacceptance criteria results&quot;</text>
<text x="679.8" y="3479" text-anchor="middle" dy="0.35em" font-size="13" font-weight="500" fill="var(--_text)">&quot;INTEGRATION phase\nevidence: e2e scenario,\nload test results&quot;</text>
<text x="679.8" y="3652" text-anchor="middle" dy="0.35em" font-size="13" font-weight="500" fill="var(--_text)">&quot;COMPLETE\nfinal report with\n12 evidence artifacts&quot;</text>
<text x="1035.575" y="114" text-anchor="middle" dy="0.35em" font-size="13" font-weight="500" fill="var(--_text)">&quot;explore, planner, architect, executor,\ndesigner, verifier, critic, build-fixer,\nsecurity-reviewer, code-reviewer, writer...&quot;</text>
<text x="679.8" y="1425" text-anchor="middle" dy="0.35em" font-size="13" font-weight="500" fill="var(--_text)">&quot;PLAN stage\nexplore (haiku) + planner (opus)&quot;</text>
<text x="679.7999999999998" y="1501" text-anchor="middle" dy="0.35em" font-size="13" font-weight="500" fill="var(--_text)">&quot;PRD stage\nanalyst (opus)&quot;</text>
<text x="679.8" y="1577" text-anchor="middle" dy="0.35em" font-size="13" font-weight="500" fill="var(--_text)">&quot;EXEC stage\nexecutor (sonnet) x3\ndesigner (sonnet) x1&quot;</text>
<text x="679.8" y="1653" text-anchor="middle" dy="0.35em" font-size="13" font-weight="500" fill="var(--_text)">&quot;VERIFY stage\nverifier (sonnet)\nsecurity-reviewer (sonnet)&quot;</text>
<text x="679.8" y="1746" text-anchor="middle" dy="0.35em" font-size="13" font-weight="500" fill="var(--_text)">&quot;FIX stage\nbuild-fixer (sonnet)\nLoop 1 of 3&quot;</text>
<text x="679.8" y="1822" text-anchor="middle" dy="0.35em" font-size="13" font-weight="500" fill="var(--_text)">&quot;VERIFY stage (re-run)\nverifier (sonnet)\nPASS&quot;</text>
</svg>