<svg xmlns="http://www.w3.org/2000/svg" viewBox="0 0 1707.935 1308" width="1707.935" height="1308" style="--bg:#0d1117;--fg:#e6edf3;--line:#3d444d;--accent:#4493f8;--muted:#9198a1;background:var(--bg)">
<style>
  @import url('https://fonts.googleapis.com/css2?family=Inter:wght@400;500;600;700&amp;display=swap');
  text { font-family: 'Inter', system-ui, sans-serif; }
  svg {
    /* Derived from --bg and --fg (overridable via --line, --accent, etc.) */
    --_text:          var(--fg);
    --_text-sec:      var(--muted, color-mix(in srgb, var(--fg) 60%, var(--bg)));
    --_text-muted:    var(--muted, color-mix(in srgb, var(--fg) 40%, var(--bg)));
    --_text-faint:    color-mix(in srgb, var(--fg) 25%, var(--bg));
    --_line:          var(--line, color-mix(in srgb, var(--fg) 30%, var(--bg)));
    --_arrow:         var(--accent, color-mix(in srgb, var(--fg) 50%, var(--bg)));
    --_node-fill:     var(--surface, color-mix(in srgb, var(--fg) 3%, var(--bg)));
    --_node-stroke:   var(--border, color-mix(in srgb, var(--fg) 20%, var(--bg)));
    --_group-fill:    var(--bg);
    --_group-hdr:     color-mix(in srgb, var(--fg) 5%, var(--bg));
    --_inner-stroke:  color-mix(in srgb, var(--fg) 12%, var(--bg));
    --_key-badge:     color-mix(in srgb, var(--fg) 10%, var(--bg));
  }
</style>
<defs>
  <marker id="seq-arrow" markerWidth="8" markerHeight="4.8" refX="8" refY="2.4" orient="auto-start-reverse">
    <polygon points="0 0, 8 2.4, 0 4.8" fill="var(--_arrow)" />
  </marker>
  <marker id="seq-arrow-open" markerWidth="8" markerHeight="4.8" refX="8" refY="2.4" orient="auto-start-reverse">
    <polyline points="0 0, 8 2.4, 0 4.8" fill="none" stroke="var(--_arrow)" stroke-width="1" />
  </marker>
</defs>
<rect x="30" y="718" width="1471.7749999999999" height="260" rx="0" ry="0" fill="none" stroke="var(--_node-stroke)" stroke-width="1" />
<rect x="30" y="718" width="245.67999999999998" height="18" fill="var(--_group-hdr)" stroke="var(--_node-stroke)" stroke-width="1" />
<text x="36" y="727" dy="0.35em" font-size="11" font-weight="600" fill="var(--_text-sec)">loop [Every token (streaming phase)]</text>
<line x1="109.625" y1="70" x2="109.625" y2="1278" stroke="var(--_line)" stroke-width="0.75" stroke-dasharray="6 4" />
<line x1="281.725" y1="70" x2="281.725" y2="1278" stroke="var(--_line)" stroke-width="0.75" stroke-dasharray="6 4" />
<line x1="432.375" y1="70" x2="432.375" y2="1278" stroke="var(--_line)" stroke-width="0.75" stroke-dasharray="6 4" />
<line x1="572.375" y1="70" x2="572.375" y2="1278" stroke="var(--_line)" stroke-width="0.75" stroke-dasharray="6 4" />
<line x1="726.6" y1="70" x2="726.6" y2="1278" stroke="var(--_line)" stroke-width="0.75" stroke-dasharray="6 4" />
<line x1="920.1500000000001" y1="70" x2="920.1500000000001" y2="1278" stroke="var(--_line)" stroke-width="0.75" stroke-dasharray="6 4" />
<line x1="1117.275" y1="70" x2="1117.275" y2="1278" stroke="var(--_line)" stroke-width="0.75" stroke-dasharray="6 4" />
<line x1="1275.075" y1="70" x2="1275.075" y2="1278" stroke="var(--_line)" stroke-width="0.75" stroke-dasharray="6 4" />
<line x1="1429.3" y1="70" x2="1429.3" y2="1278" stroke="var(--_line)" stroke-width="0.75" stroke-dasharray="6 4" />
<line x1="109.625" y1="90" x2="281.725" y2="90" stroke="var(--_line)" stroke-width="0.75" marker-end="url(#seq-arrow)" />
<text x="195.675" y="84" text-anchor="middle" font-size="11" font-weight="400" fill="var(--_text-muted)">sendMessage(&quot;Hello&quot;)</text>
<line x1="281.725" y1="130" x2="432.375" y2="130" stroke="var(--_line)" stroke-width="0.75" marker-end="url(#seq-arrow)" />
<text x="357.05" y="124" text-anchor="middle" font-size="11" font-weight="400" fill="var(--_text-muted)">startStream(ChatStreamRequest)</text>
<line x1="432.375" y1="170" x2="572.375" y2="170" stroke="var(--_line)" stroke-width="0.75" marker-end="url(#seq-arrow)" />
<text x="502.375" y="164" text-anchor="middle" font-size="11" font-weight="400" fill="var(--_text-muted)">bytes(for: urlRequest)</text>
<line x1="572.375" y1="210" x2="726.6" y2="210" stroke="var(--_line)" stroke-width="0.75" marker-end="url(#seq-arrow)" />
<text x="649.4875" y="204" text-anchor="middle" font-size="11" font-weight="400" fill="var(--_text-muted)">HTTP POST (JSON body)</text>
<line x1="726.6" y1="250" x2="920.1500000000001" y2="250" stroke="var(--_line)" stroke-width="0.75" marker-end="url(#seq-arrow)" />
<text x="823.375" y="244" text-anchor="middle" font-size="11" font-weight="400" fill="var(--_text-muted)">execute(prompt:)</text>
<line x1="920.1500000000001" y1="290" x2="1117.275" y2="290" stroke="var(--_line)" stroke-width="0.75" marker-end="url(#seq-arrow)" />
<text x="1018.7125000000001" y="284" text-anchor="middle" font-size="11" font-weight="400" fill="var(--_text-muted)">Process.run() python3 sdk-wrapper.py</text>
<line x1="1117.275" y1="330" x2="1275.075" y2="330" stroke="var(--_line)" stroke-width="0.75" marker-end="url(#seq-arrow)" />
<text x="1196.1750000000002" y="324" text-anchor="middle" font-size="11" font-weight="400" fill="var(--_text-muted)">claude_agent_sdk.query()</text>
<line x1="1275.075" y1="370" x2="1429.3" y2="370" stroke="var(--_line)" stroke-width="0.75" marker-end="url(#seq-arrow)" />
<text x="1352.1875" y="364" text-anchor="middle" font-size="11" font-weight="400" fill="var(--_text-muted)">HTTP POST /v1/messages (streaming)</text>
<line x1="1429.3" y1="410" x2="1275.075" y2="410" stroke="var(--_line)" stroke-width="0.75" stroke-dasharray="6 4" marker-end="url(#seq-arrow)" />
<text x="1352.1875" y="404" text-anchor="middle" font-size="11" font-weight="400" fill="var(--_text-muted)">{&quot;type&quot;:&quot;content_block_delta&quot;,...}</text>
<line x1="1275.075" y1="450" x2="1117.275" y2="450" stroke="var(--_line)" stroke-width="0.75" stroke-dasharray="6 4" marker-end="url(#seq-arrow)" />
<text x="1196.1750000000002" y="444" text-anchor="middle" font-size="11" font-weight="400" fill="var(--_text-muted)">NDJSON line on stdout</text>
<line x1="1117.275" y1="490" x2="920.1500000000001" y2="490" stroke="var(--_line)" stroke-width="0.75" stroke-dasharray="6 4" marker-end="url(#seq-arrow)" />
<text x="1018.7125000000001" y="484" text-anchor="middle" font-size="11" font-weight="400" fill="var(--_text-muted)">Pipe read on readQueue</text>
<line x1="920.1500000000001" y1="530" x2="726.6" y2="530" stroke="var(--_line)" stroke-width="0.75" stroke-dasharray="6 4" marker-end="url(#seq-arrow)" />
<text x="823.375" y="524" text-anchor="middle" font-size="11" font-weight="400" fill="var(--_text-muted)">AsyncThrowingStream yield</text>
<line x1="726.6" y1="570" x2="572.375" y2="570" stroke="var(--_line)" stroke-width="0.75" stroke-dasharray="6 4" marker-end="url(#seq-arrow)" />
<text x="649.4875" y="564" text-anchor="middle" font-size="11" font-weight="400" fill="var(--_text-muted)">HTTP chunk</text>
<line x1="572.375" y1="610" x2="432.375" y2="610" stroke="var(--_line)" stroke-width="0.75" stroke-dasharray="6 4" marker-end="url(#seq-arrow)" />
<text x="502.375" y="604" text-anchor="middle" font-size="11" font-weight="400" fill="var(--_text-muted)">SSE line parsed</text>
<line x1="432.375" y1="650" x2="281.725" y2="650" stroke="var(--_line)" stroke-width="0.75" stroke-dasharray="6 4" marker-end="url(#seq-arrow)" />
<text x="357.05" y="644" text-anchor="middle" font-size="11" font-weight="400" fill="var(--_text-muted)">withObservationTracking fires</text>
<line x1="281.725" y1="690" x2="109.625" y2="690" stroke="var(--_line)" stroke-width="0.75" stroke-dasharray="6 4" marker-end="url(#seq-arrow)" />
<text x="195.675" y="684" text-anchor="middle" font-size="11" font-weight="400" fill="var(--_text-muted)">SwiftUI re-render</text>
<line x1="1429.3" y1="758" x2="1275.075" y2="758" stroke="var(--_line)" stroke-width="0.75" stroke-dasharray="6 4" marker-end="url(#seq-arrow)" />
<text x="1352.1875" y="752" text-anchor="middle" font-size="11" font-weight="400" fill="var(--_text-muted)">delta chunk</text>
<line x1="1275.075" y1="798" x2="1117.275" y2="798" stroke="var(--_line)" stroke-width="0.75" stroke-dasharray="6 4" marker-end="url(#seq-arrow)" />
<text x="1196.1750000000002" y="792" text-anchor="middle" font-size="11" font-weight="400" fill="var(--_text-muted)">stdout line</text>
<line x1="1117.275" y1="838" x2="726.6" y2="838" stroke="var(--_line)" stroke-width="0.75" stroke-dasharray="6 4" marker-end="url(#seq-arrow)" />
<text x="921.9375" y="832" text-anchor="middle" font-size="11" font-weight="400" fill="var(--_text-muted)">NDJSON</text>
<line x1="726.6" y1="878" x2="432.375" y2="878" stroke="var(--_line)" stroke-width="0.75" stroke-dasharray="6 4" marker-end="url(#seq-arrow)" />
<text x="579.4875" y="872" text-anchor="middle" font-size="11" font-weight="400" fill="var(--_text-muted)">SSE event</text>
<line x1="432.375" y1="918" x2="281.725" y2="918" stroke="var(--_line)" stroke-width="0.75" stroke-dasharray="6 4" marker-end="url(#seq-arrow)" />
<text x="357.05" y="912" text-anchor="middle" font-size="11" font-weight="400" fill="var(--_text-muted)">@Observable update</text>
<line x1="281.725" y1="958" x2="109.625" y2="958" stroke="var(--_line)" stroke-width="0.75" stroke-dasharray="6 4" marker-end="url(#seq-arrow)" />
<text x="195.675" y="952" text-anchor="middle" font-size="11" font-weight="400" fill="var(--_text-muted)">UI re-render</text>
<line x1="1429.3" y1="998" x2="1275.075" y2="998" stroke="var(--_line)" stroke-width="0.75" stroke-dasharray="6 4" marker-end="url(#seq-arrow)" />
<text x="1352.1875" y="992" text-anchor="middle" font-size="11" font-weight="400" fill="var(--_text-muted)">{&quot;type&quot;:&quot;result&quot;,...}</text>
<line x1="1275.075" y1="1038" x2="1117.275" y2="1038" stroke="var(--_line)" stroke-width="0.75" stroke-dasharray="6 4" marker-end="url(#seq-arrow)" />
<text x="1196.1750000000002" y="1032" text-anchor="middle" font-size="11" font-weight="400" fill="var(--_text-muted)">Final NDJSON + EOF</text>
<line x1="1117.275" y1="1078" x2="920.1500000000001" y2="1078" stroke="var(--_line)" stroke-width="0.75" stroke-dasharray="6 4" marker-end="url(#seq-arrow)" />
<text x="1018.7125000000001" y="1072" text-anchor="middle" font-size="11" font-weight="400" fill="var(--_text-muted)">EOF on pipe</text>
<line x1="920.1500000000001" y1="1118" x2="726.6" y2="1118" stroke="var(--_line)" stroke-width="0.75" stroke-dasharray="6 4" marker-end="url(#seq-arrow)" />
<text x="823.375" y="1112" text-anchor="middle" font-size="11" font-weight="400" fill="var(--_text-muted)">Stream finished</text>
<line x1="726.6" y1="1158" x2="432.375" y2="1158" stroke="var(--_line)" stroke-width="0.75" stroke-dasharray="6 4" marker-end="url(#seq-arrow)" />
<text x="579.4875" y="1152" text-anchor="middle" font-size="11" font-weight="400" fill="var(--_text-muted)">SSE stream ends</text>
<line x1="432.375" y1="1198" x2="281.725" y2="1198" stroke="var(--_line)" stroke-width="0.75" stroke-dasharray="6 4" marker-end="url(#seq-arrow)" />
<text x="357.05" y="1192" text-anchor="middle" font-size="11" font-weight="400" fill="var(--_text-muted)">isStreaming = false</text>
<line x1="281.725" y1="1238" x2="109.625" y2="1238" stroke="var(--_line)" stroke-width="0.75" stroke-dasharray="6 4" marker-end="url(#seq-arrow)" />
<text x="195.675" y="1232" text-anchor="middle" font-size="11" font-weight="400" fill="var(--_text-muted)">Show cost: $0.04</text>
<rect x="598.4425" y="74" width="342.04" height="27" fill="var(--_group-hdr)" stroke="var(--_node-stroke)" stroke-width="0.75" />
<polygon points="934.4825000000001,74 940.4825000000001,80 934.4825000000001,80" fill="var(--_inner-stroke)" />
<text x="769.4625" y="87.5" text-anchor="middle" dy="0.35em" font-size="11" font-weight="400" fill="var(--_text-muted)">Outbound: User prompt travels down 5 layers (~50ms setup)</text>
<rect x="354.20000000000005" y="94" width="176.16" height="27" fill="var(--_group-hdr)" stroke="var(--_node-stroke)" stroke-width="0.75" />
<polygon points="524.36,94 530.36,100 524.36,100" fill="var(--_inner-stroke)" />
<text x="442.28000000000003" y="107.5" text-anchor="middle" dy="0.35em" font-size="11" font-weight="400" fill="var(--_text-muted)">0ms: Append user ChatMessage</text>
<rect x="490.55" y="134" width="181.88" height="27" fill="var(--_group-hdr)" stroke="var(--_node-stroke)" stroke-width="0.75" />
<polygon points="666.4300000000001,134 672.4300000000001,140 666.4300000000001,140" fill="var(--_inner-stroke)" />
<text x="581.49" y="147.5" text-anchor="middle" dy="0.35em" font-size="11" font-weight="400" fill="var(--_text-muted)">1ms: POST /api/v1/chat/stream</text>
<rect x="634.125" y="174" width="164.72" height="27" fill="var(--_group-hdr)" stroke="var(--_node-stroke)" stroke-width="0.75" />
<polygon points="792.845,174 798.845,180 792.845,180" fill="var(--_inner-stroke)" />
<text x="716.485" y="187.5" text-anchor="middle" dy="0.35em" font-size="11" font-weight="400" fill="var(--_text-muted)">2ms: HTTP connection opens</text>
<rect x="799.075" y="214" width="164.72" height="27" fill="var(--_group-hdr)" stroke="var(--_node-stroke)" stroke-width="0.75" />
<polygon points="957.7950000000001,214 963.7950000000001,220 957.7950000000001,220" fill="var(--_inner-stroke)" />
<text x="881.4350000000001" y="227.5" text-anchor="middle" dy="0.35em" font-size="11" font-weight="400" fill="var(--_text-muted)">5ms: Route handler invoked</text>
<rect x="1021.2250000000001" y="254" width="176.16" height="27" fill="var(--_group-hdr)" stroke="var(--_node-stroke)" stroke-width="0.75" />
<polygon points="1191.3850000000002,254 1197.3850000000002,260 1191.3850000000002,260" fill="var(--_inner-stroke)" />
<text x="1109.305" y="267.5" text-anchor="middle" dy="0.35em" font-size="11" font-weight="400" fill="var(--_text-muted)">10ms: Strip CLAUDE* env vars</text>
<rect x="1193.325" y="294" width="181.88" height="27" fill="var(--_group-hdr)" stroke="var(--_node-stroke)" stroke-width="0.75" />
<polygon points="1369.205,294 1375.205,300 1369.205,300" fill="var(--_inner-stroke)" />
<text x="1284.265" y="307.5" text-anchor="middle" dy="0.35em" font-size="11" font-weight="400" fill="var(--_text-muted)">15ms: Import claude_agent_sdk</text>
<rect x="1336.825" y="334" width="204.76000000000002" height="27" fill="var(--_group-hdr)" stroke="var(--_node-stroke)" stroke-width="0.75" />
<polygon points="1535.585,334 1541.585,340 1535.585,340" fill="var(--_inner-stroke)" />
<text x="1439.2050000000002" y="347.5" text-anchor="middle" dy="0.35em" font-size="11" font-weight="400" fill="var(--_text-muted)">20ms: --output-format stream-json</text>
<rect x="1501.7749999999999" y="374" width="176.16" height="27" fill="var(--_group-hdr)" stroke="var(--_node-stroke)" stroke-width="0.75" />
<polygon points="1671.935,374 1677.935,380 1671.935,380" fill="var(--_inner-stroke)" />
<text x="1589.8549999999998" y="387.5" text-anchor="middle" dy="0.35em" font-size="11" font-weight="400" fill="var(--_text-muted)">50ms: Model inference begins</text>
<rect x="604.1624999999999" y="374" width="330.6" height="27" fill="var(--_group-hdr)" stroke="var(--_node-stroke)" stroke-width="0.75" />
<polygon points="928.7624999999999,374 934.7624999999999,380 928.7624999999999,380" fill="var(--_inner-stroke)" />
<text x="769.4624999999999" y="387.5" text-anchor="middle" dy="0.35em" font-size="11" font-weight="400" fill="var(--_text-muted)">Inbound: First token returns up 5 layers (~200-12000ms)</text>
<rect x="1336.825" y="414" width="141.84" height="27" fill="var(--_group-hdr)" stroke="var(--_node-stroke)" stroke-width="0.75" />
<polygon points="1472.665,414 1478.665,420 1472.665,420" fill="var(--_inner-stroke)" />
<text x="1407.7450000000001" y="427.5" text-anchor="middle" dy="0.35em" font-size="11" font-weight="400" fill="var(--_text-muted)">+0ms: stdout JSON line</text>
<rect x="1193.325" y="454" width="181.88" height="27" fill="var(--_group-hdr)" stroke="var(--_node-stroke)" stroke-width="0.75" />
<polygon points="1369.205,454 1375.205,460 1369.205,460" fill="var(--_inner-stroke)" />
<text x="1284.265" y="467.5" text-anchor="middle" dy="0.35em" font-size="11" font-weight="400" fill="var(--_text-muted)">+1ms: print(line, flush=True)</text>
<rect x="1021.2250000000001" y="494" width="199.04000000000002" height="27" fill="var(--_group-hdr)" stroke="var(--_node-stroke)" stroke-width="0.75" />
<polygon points="1214.265,494 1220.265,500 1214.265,500" fill="var(--_inner-stroke)" />
<text x="1120.7450000000001" y="507.5" text-anchor="middle" dy="0.35em" font-size="11" font-weight="400" fill="var(--_text-muted)">+2ms: Cancel 30s initial timeout</text>
<rect x="799.075" y="534" width="176.16" height="27" fill="var(--_group-hdr)" stroke="var(--_node-stroke)" stroke-width="0.75" />
<polygon points="969.235,534 975.235,540 969.235,540" fill="var(--_inner-stroke)" />
<text x="887.1550000000001" y="547.5" text-anchor="middle" dy="0.35em" font-size="11" font-weight="400" fill="var(--_text-muted)">+3ms: SSE event: data: {...}</text>
<rect x="634.125" y="574" width="181.88" height="27" fill="var(--_group-hdr)" stroke="var(--_node-stroke)" stroke-width="0.75" />
<polygon points="810.005,574 816.005,580 810.005,580" fill="var(--_inner-stroke)" />
<text x="725.065" y="587.5" text-anchor="middle" dy="0.35em" font-size="11" font-weight="400" fill="var(--_text-muted)">+5ms: asyncBytes.lines yields</text>
<rect x="490.55" y="614" width="164.72" height="27" fill="var(--_group-hdr)" stroke="var(--_node-stroke)" stroke-width="0.75" />
<polygon points="649.27,614 655.27,620 649.27,620" fill="var(--_inner-stroke)" />
<text x="572.91" y="627.5" text-anchor="middle" dy="0.35em" font-size="11" font-weight="400" fill="var(--_text-muted)">+6ms: lastActivity.touch()</text>
<rect x="354.20000000000005" y="654" width="164.72" height="27" fill="var(--_group-hdr)" stroke="var(--_node-stroke)" stroke-width="0.75" />
<polygon points="512.9200000000001,654 518.9200000000001,660 512.9200000000001,660" fill="var(--_inner-stroke)" />
<text x="436.56000000000006" y="667.5" text-anchor="middle" dy="0.35em" font-size="11" font-weight="400" fill="var(--_text-muted)">+7ms: processStreamMessage</text>
<rect x="189.25" y="694" width="204.76000000000002" height="27" fill="var(--_group-hdr)" stroke="var(--_node-stroke)" stroke-width="0.75" />
<polygon points="388.01,694 394.01,700 388.01,700" fill="var(--_inner-stroke)" />
<text x="291.63" y="707.5" text-anchor="middle" dy="0.35em" font-size="11" font-weight="400" fill="var(--_text-muted)">+8ms: Character appears on screen</text>
<rect x="638.4825" y="694" width="261.96000000000004" height="27" fill="var(--_group-hdr)" stroke="var(--_node-stroke)" stroke-width="0.75" />
<polygon points="894.4425,694 900.4425,700 894.4425,700" fill="var(--_inner-stroke)" />
<text x="769.4625" y="707.5" text-anchor="middle" dy="0.35em" font-size="11" font-weight="400" fill="var(--_text-muted)">Subsequent tokens: ~8ms per hop (streaming)</text>
<rect x="709.4625" y="962" width="120" height="27" fill="var(--_group-hdr)" stroke="var(--_node-stroke)" stroke-width="0.75" />
<polygon points="823.4625,962 829.4625,968 823.4625,968" fill="var(--_inner-stroke)" />
<text x="769.4625" y="975.5" text-anchor="middle" dy="0.35em" font-size="11" font-weight="400" fill="var(--_text-muted)">Stream completion</text>
<rect x="1021.2250000000001" y="1082" width="244.8" height="27" fill="var(--_group-hdr)" stroke="var(--_node-stroke)" stroke-width="0.75" />
<polygon points="1260.025,1082 1266.025,1088 1260.025,1088" fill="var(--_inner-stroke)" />
<text x="1143.6250000000002" y="1095.5" text-anchor="middle" dy="0.35em" font-size="11" font-weight="400" fill="var(--_text-muted)">waitUntilExit() before terminationStatus</text>
<rect x="40" y="30" width="139.25" height="40" rx="4" ry="4" fill="var(--_node-fill)" stroke="var(--_node-stroke)" stroke-width="1" />
<text x="109.625" y="50" text-anchor="middle" dy="0.35em" font-size="13" font-weight="500" fill="var(--_text)">User (tap Send)</text>
<rect x="219.25000000000003" y="30" width="124.95" height="40" rx="4" ry="4" fill="var(--_node-fill)" stroke="var(--_node-stroke)" stroke-width="1" />
<text x="281.725" y="50" text-anchor="middle" dy="0.35em" font-size="13" font-weight="500" fill="var(--_text)">ChatViewModel</text>
<rect x="384.2" y="30" width="96.35000000000001" height="40" rx="4" ry="4" fill="var(--_node-fill)" stroke="var(--_node-stroke)" stroke-width="1" />
<text x="432.375" y="50" text-anchor="middle" dy="0.35em" font-size="13" font-weight="500" fill="var(--_text)">SSEClient</text>
<rect x="520.625" y="30" width="103.5" height="40" rx="4" ry="4" fill="var(--_node-fill)" stroke="var(--_node-stroke)" stroke-width="1" />
<text x="572.375" y="50" text-anchor="middle" dy="0.35em" font-size="13" font-weight="500" fill="var(--_text)">URLSession</text>
<rect x="664.125" y="30" width="124.95" height="40" rx="4" ry="4" fill="var(--_node-fill)" stroke="var(--_node-stroke)" stroke-width="1" />
<text x="726.6" y="50" text-anchor="middle" dy="0.35em" font-size="13" font-weight="500" fill="var(--_text)">Vapor Backend</text>
<rect x="829.075" y="30" width="182.15" height="40" rx="4" ry="4" fill="var(--_node-fill)" stroke="var(--_node-stroke)" stroke-width="1" />
<text x="920.1500000000001" y="50" text-anchor="middle" dy="0.35em" font-size="13" font-weight="500" fill="var(--_text)">ClaudeExecutorService</text>
<rect x="1051.2250000000001" y="30" width="132.10000000000002" height="40" rx="4" ry="4" fill="var(--_node-fill)" stroke="var(--_node-stroke)" stroke-width="1" />
<text x="1117.275" y="50" text-anchor="middle" dy="0.35em" font-size="13" font-weight="500" fill="var(--_text)">sdk-wrapper.py</text>
<rect x="1223.325" y="30" width="103.5" height="40" rx="4" ry="4" fill="var(--_node-fill)" stroke="var(--_node-stroke)" stroke-width="1" />
<text x="1275.075" y="50" text-anchor="middle" dy="0.35em" font-size="13" font-weight="500" fill="var(--_text)">Claude CLI</text>
<rect x="1366.825" y="30" width="124.95" height="40" rx="4" ry="4" fill="var(--_node-fill)" stroke="var(--_node-stroke)" stroke-width="1" />
<text x="1429.3" y="50" text-anchor="middle" dy="0.35em" font-size="13" font-weight="500" fill="var(--_text)">Anthropic API</text>
</svg>