<svg xmlns="http://www.w3.org/2000/svg" viewBox="0 0 860.25 1208" width="860.25" height="1208" style="--bg:#0d1117;--fg:#e6edf3;--line:#3d444d;--accent:#4493f8;--muted:#9198a1;background:var(--bg)">
<style>
  @import url('https://fonts.googleapis.com/css2?family=Inter:wght@400;500;600;700&amp;display=swap');
  text { font-family: 'Inter', system-ui, sans-serif; }
  svg {
    /* Derived from --bg and --fg (overridable via --line, --accent, etc.) */
    --_text:          var(--fg);
    --_text-sec:      var(--muted, color-mix(in srgb, var(--fg) 60%, var(--bg)));
    --_text-muted:    var(--muted, color-mix(in srgb, var(--fg) 40%, var(--bg)));
    --_text-faint:    color-mix(in srgb, var(--fg) 25%, var(--bg));
    --_line:          var(--line, color-mix(in srgb, var(--fg) 30%, var(--bg)));
    --_arrow:         var(--accent, color-mix(in srgb, var(--fg) 50%, var(--bg)));
    --_node-fill:     var(--surface, color-mix(in srgb, var(--fg) 3%, var(--bg)));
    --_node-stroke:   var(--border, color-mix(in srgb, var(--fg) 20%, var(--bg)));
    --_group-fill:    var(--bg);
    --_group-hdr:     color-mix(in srgb, var(--fg) 5%, var(--bg));
    --_inner-stroke:  color-mix(in srgb, var(--fg) 12%, var(--bg));
    --_key-badge:     color-mix(in srgb, var(--fg) 10%, var(--bg));
  }
</style>
<defs>
  <marker id="arrowhead" markerWidth="8" markerHeight="4.8" refX="8" refY="2.4" orient="auto">
    <polygon points="0 0, 8 2.4, 0 4.8" fill="var(--_arrow)" />
  </marker>
  <marker id="arrowhead-start" markerWidth="8" markerHeight="4.8" refX="0" refY="2.4" orient="auto-start-reverse">
    <polygon points="8 0, 0 2.4, 8 4.8" fill="var(--_arrow)" />
  </marker>
</defs>
<rect x="40" y="296" width="780.25" height="112" rx="0" ry="0" fill="var(--_group-fill)" stroke="var(--_node-stroke)" stroke-width="1" />
<rect x="40" y="296" width="780.25" height="28" rx="0" ry="0" fill="var(--_group-hdr)" stroke="var(--_node-stroke)" stroke-width="1" />
<text x="52" y="310" dy="0.35em" font-size="12" font-weight="600" fill="var(--_text-sec)">Validators</text>
<polyline points="431.9125,76 431.9125,196" fill="none" stroke="var(--_line)" stroke-width="0.75" marker-end="url(#arrowhead)" />
<polyline points="431.9125,232 431.9125,252 138.77499999999998,252 138.77499999999998,352" fill="none" stroke="var(--_line)" stroke-width="0.75" marker-end="url(#arrowhead)" />
<polyline points="431.9125,232 431.9125,252 330.625,252 330.625,352" fill="none" stroke="var(--_line)" stroke-width="0.75" marker-end="url(#arrowhead)" />
<polyline points="431.9125,232 431.9125,252 508.175,252 508.175,352" fill="none" stroke="var(--_line)" stroke-width="0.75" marker-end="url(#arrowhead)" />
<polyline points="431.9125,232 431.9125,252 710.75,252 710.75,352" fill="none" stroke="var(--_line)" stroke-width="0.75" marker-end="url(#arrowhead)" />
<polyline points="138.77499999999998,388 138.77499999999998,508" fill="none" stroke="var(--_line)" stroke-width="0.75" marker-end="url(#arrowhead)" />
<polyline points="330.625,388 330.625,508" fill="none" stroke="var(--_line)" stroke-width="0.75" marker-end="url(#arrowhead)" />
<polyline points="508.175,388 508.175,508" fill="none" stroke="var(--_line)" stroke-width="0.75" marker-end="url(#arrowhead)" />
<polyline points="710.75,388 710.75,508" fill="none" stroke="var(--_line)" stroke-width="0.75" marker-end="url(#arrowhead)" />
<polyline points="138.77499999999998,544 138.77499999999998,682 342.625,682" fill="none" stroke="var(--_line)" stroke-width="0.75" marker-end="url(#arrowhead)" />
<polyline points="330.625,544 330.625,682 342.625,682" fill="none" stroke="var(--_line)" stroke-width="0.75" marker-end="url(#arrowhead)" />
<polyline points="508.175,544 508.175,682 496.17500000000007,682" fill="none" stroke="var(--_line)" stroke-width="0.75" marker-end="url(#arrowhead)" />
<polyline points="710.75,544 710.75,682 496.17500000000007,682" fill="none" stroke="var(--_line)" stroke-width="0.75" marker-end="url(#arrowhead)" />
<polyline points="419.40000000000003,700 419.40000000000003,820" fill="none" stroke="var(--_line)" stroke-width="0.75" marker-end="url(#arrowhead)" />
<polyline points="419.40000000000003,856 419.40000000000003,976" fill="none" stroke="var(--_line)" stroke-width="0.75" marker-end="url(#arrowhead)" />
<polyline points="419.40000000000003,1012 419.40000000000003,1032 277.6000000000001,1032 277.6000000000001,1132" fill="none" stroke="var(--_line)" stroke-width="0.75" marker-end="url(#arrowhead)" />
<polyline points="419.40000000000003,1012 419.40000000000003,1032 426.55000000000007,1032 426.55000000000007,1132" fill="none" stroke="var(--_line)" stroke-width="0.75" marker-end="url(#arrowhead)" />
<polyline points="419.40000000000003,1012 419.40000000000003,1032 561.2,1032 561.2,1132" fill="none" stroke="var(--_line)" stroke-width="0.75" marker-end="url(#arrowhead)" />
<rect x="344.4125" y="40" width="175" height="36" rx="0" ry="0" fill="var(--_node-fill)" stroke="var(--_node-stroke)" stroke-width="0.75" />
<rect x="380.1625" y="196" width="103.5" height="36" rx="0" ry="0" fill="var(--_node-fill)" stroke="var(--_node-stroke)" stroke-width="0.75" />
<rect x="47.699999999999974" y="508" width="182.15" height="36" rx="0" ry="0" fill="var(--_node-fill)" stroke="var(--_node-stroke)" stroke-width="0.75" />
<rect x="253.85" y="508" width="153.55" height="36" rx="0" ry="0" fill="var(--_node-fill)" stroke="var(--_node-stroke)" stroke-width="0.75" />
<rect x="431.4" y="508" width="153.55" height="36" rx="0" ry="0" fill="var(--_node-fill)" stroke="var(--_node-stroke)" stroke-width="0.75" />
<rect x="608.95" y="508" width="203.60000000000002" height="36" rx="0" ry="0" fill="var(--_node-fill)" stroke="var(--_node-stroke)" stroke-width="0.75" />
<rect x="342.625" y="664" width="153.55" height="36" rx="0" ry="0" fill="var(--_node-fill)" stroke="var(--_node-stroke)" stroke-width="0.75" />
<rect x="224.65" y="820" width="389.50000000000006" height="36" rx="0" ry="0" fill="var(--_node-fill)" stroke="var(--_node-stroke)" stroke-width="0.75" />
<rect x="349.77500000000003" y="976" width="139.25" height="36" rx="0" ry="0" fill="var(--_node-fill)" stroke="var(--_node-stroke)" stroke-width="0.75" />
<rect x="207.97500000000008" y="1132" width="139.25" height="36" rx="0" ry="0" fill="var(--_node-fill)" stroke="var(--_node-stroke)" stroke-width="0.75" />
<rect x="371.2250000000001" y="1132" width="110.65" height="36" rx="0" ry="0" fill="var(--_node-fill)" stroke="var(--_node-stroke)" stroke-width="0.75" />
<rect x="505.87500000000006" y="1132" width="110.65" height="36" rx="0" ry="0" fill="var(--_node-fill)" stroke="var(--_node-stroke)" stroke-width="0.75" />
<rect x="61.99999999999997" y="352" width="153.55" height="36" rx="0" ry="0" fill="var(--_node-fill)" stroke="var(--_node-stroke)" stroke-width="0.75" />
<rect x="268.15" y="352" width="124.95" height="36" rx="0" ry="0" fill="var(--_node-fill)" stroke="var(--_node-stroke)" stroke-width="0.75" />
<rect x="445.7" y="352" width="124.95" height="36" rx="0" ry="0" fill="var(--_node-fill)" stroke="var(--_node-stroke)" stroke-width="0.75" />
<rect x="623.25" y="352" width="175" height="36" rx="0" ry="0" fill="var(--_node-fill)" stroke="var(--_node-stroke)" stroke-width="0.75" />
<text x="431.9125" y="58" text-anchor="middle" dy="0.35em" font-size="13" font-weight="500" fill="var(--_text)">Gate YAML Definition</text>
<text x="431.9125" y="214" text-anchor="middle" dy="0.35em" font-size="13" font-weight="500" fill="var(--_text)">GateRunner</text>
<text x="138.77499999999998" y="526" text-anchor="middle" dy="0.35em" font-size="13" font-weight="500" fill="var(--_text)">EvidenceItem: browser</text>
<text x="330.625" y="526" text-anchor="middle" dy="0.35em" font-size="13" font-weight="500" fill="var(--_text)">EvidenceItem: ios</text>
<text x="508.17499999999995" y="526" text-anchor="middle" dy="0.35em" font-size="13" font-weight="500" fill="var(--_text)">EvidenceItem: api</text>
<text x="710.75" y="526" text-anchor="middle" dy="0.35em" font-size="13" font-weight="500" fill="var(--_text)">EvidenceItem: screenshot</text>
<text x="419.4" y="682" text-anchor="middle" dy="0.35em" font-size="13" font-weight="500" fill="var(--_text)">EvidenceCollector</text>
<text x="419.40000000000003" y="838" text-anchor="middle" dy="0.35em" font-size="13" font-weight="500" fill="var(--_text)">&quot;Timestamped Directory\nevidence/YYYYMMDD-HHMMSS/&quot;</text>
<text x="419.40000000000003" y="994" text-anchor="middle" dy="0.35em" font-size="13" font-weight="500" fill="var(--_text)">ReportGenerator</text>
<text x="277.6000000000001" y="1150" text-anchor="middle" dy="0.35em" font-size="13" font-weight="500" fill="var(--_text)">Markdown Report</text>
<text x="426.55000000000007" y="1150" text-anchor="middle" dy="0.35em" font-size="13" font-weight="500" fill="var(--_text)">JSON Report</text>
<text x="561.2" y="1150" text-anchor="middle" dy="0.35em" font-size="13" font-weight="500" fill="var(--_text)">HTML Report</text>
<text x="138.77499999999998" y="370" text-anchor="middle" dy="0.35em" font-size="13" font-weight="500" fill="var(--_text)">Browser Validator</text>
<text x="330.625" y="370" text-anchor="middle" dy="0.35em" font-size="13" font-weight="500" fill="var(--_text)">iOS Validator</text>
<text x="508.175" y="370" text-anchor="middle" dy="0.35em" font-size="13" font-weight="500" fill="var(--_text)">API Validator</text>
<text x="710.75" y="370" text-anchor="middle" dy="0.35em" font-size="13" font-weight="500" fill="var(--_text)">Screenshot Validator</text>
</svg>